<?xml version="1.0" encoding="UTF-8" standalone="no"?>
<svg
   viewBox="0 0 588.46503 183.88"
   version="1.1"
   id="svg330"
   sodipodi:docname="Local Devices horizontal svm1.svg"
   width="588.46503"
   height="183.88"
   inkscape:version="1.2.2 (732a01da63, 2022-12-09, custom)"
   xmlns:inkscape="http://www.inkscape.org/namespaces/inkscape"
   xmlns:sodipodi="http://sodipodi.sourceforge.net/DTD/sodipodi-0.dtd"
   xmlns:xlink="http://www.w3.org/1999/xlink"
   xmlns="http://www.w3.org/2000/svg"
   xmlns:svg="http://www.w3.org/2000/svg">
  <sodipodi:namedview
     id="namedview332"
     pagecolor="#ffffff"
     bordercolor="#666666"
     borderopacity="1.0"
     inkscape:showpageshadow="2"
     inkscape:pageopacity="0.0"
     inkscape:pagecheckerboard="0"
     inkscape:deskcolor="#d1d1d1"
     showgrid="false"
     inkscape:zoom="0.62134503"
     inkscape:cx="251.06824"
     inkscape:cy="50.696471"
     inkscape:window-width="2480"
     inkscape:window-height="1022"
     inkscape:window-x="76"
     inkscape:window-y="31"
     inkscape:window-maximized="0"
     inkscape:current-layer="svg330" />
  <defs
     id="defs129">
    <style
       id="style18">
      .cls-1 {
        fill: none;
      }

      .cls-2 {
        fill: url(#New_Gradient_Swatch_5-11);
      }

      .cls-3 {
        fill: url(#New_Gradient_Swatch_5-14);
      }

      .cls-4 {
        fill: url(#New_Gradient_Swatch_5-15);
      }

      .cls-5 {
        fill: url(#New_Gradient_Swatch_5-16);
      }

      .cls-6 {
        fill: url(#New_Gradient_Swatch_5-10);
      }

      .cls-7 {
        fill: url(#New_Gradient_Swatch_5-17);
      }

      .cls-8 {
        fill: url(#New_Gradient_Swatch_5-12);
      }

      .cls-9 {
        fill: url(#New_Gradient_Swatch_5-13);
      }

      .cls-10 {
        fill: url(#New_Gradient_Swatch_5-18);
      }

      .cls-11 {
        fill: url(#New_Gradient_Swatch_5-19);
      }

      .cls-12 {
        fill: url(#New_Gradient_Swatch_5-62);
      }

      .cls-13 {
        fill: url(#New_Gradient_Swatch_5-61);
      }

      .cls-14 {
        fill: url(#New_Gradient_Swatch_5-63);
      }

      .cls-15 {
        fill: url(#New_Gradient_Swatch_5-64);
      }

      .cls-16 {
        fill: url(#New_Gradient_Swatch_5-60);
      }

      .cls-17 {
        fill: url(#New_Gradient_Swatch_5-50);
      }

      .cls-18 {
        fill: url(#New_Gradient_Swatch_5-51);
      }

      .cls-19 {
        fill: url(#New_Gradient_Swatch_5-52);
      }

      .cls-20 {
        fill: url(#New_Gradient_Swatch_5-53);
      }

      .cls-21 {
        fill: url(#New_Gradient_Swatch_5-54);
      }

      .cls-22 {
        fill: url(#New_Gradient_Swatch_5-55);
      }

      .cls-23 {
        fill: url(#New_Gradient_Swatch_5-56);
      }

      .cls-24 {
        fill: url(#New_Gradient_Swatch_5-57);
      }

      .cls-25 {
        fill: url(#New_Gradient_Swatch_5-58);
      }

      .cls-26 {
        fill: url(#New_Gradient_Swatch_5-59);
      }

      .cls-27 {
        fill: url(#New_Gradient_Swatch_5-41);
      }

      .cls-28 {
        fill: url(#New_Gradient_Swatch_5-48);
      }

      .cls-29 {
        fill: url(#New_Gradient_Swatch_5-46);
      }

      .cls-30 {
        fill: url(#New_Gradient_Swatch_5-42);
      }

      .cls-31 {
        fill: url(#New_Gradient_Swatch_5-40);
      }

      .cls-32 {
        fill: url(#New_Gradient_Swatch_5-32);
      }

      .cls-33 {
        fill: url(#New_Gradient_Swatch_5-31);
      }

      .cls-34 {
        fill: url(#New_Gradient_Swatch_5-30);
      }

      .cls-35 {
        fill: url(#New_Gradient_Swatch_5-45);
      }

      .cls-36 {
        fill: url(#New_Gradient_Swatch_5-43);
      }

      .cls-37 {
        fill: url(#New_Gradient_Swatch_5-49);
      }

      .cls-38 {
        fill: url(#New_Gradient_Swatch_5-44);
      }

      .cls-39 {
        fill: url(#New_Gradient_Swatch_5-47);
      }

      .cls-40 {
        fill: url(#New_Gradient_Swatch_5-39);
      }

      .cls-41 {
        fill: url(#New_Gradient_Swatch_5-38);
      }

      .cls-42 {
        fill: url(#New_Gradient_Swatch_5-35);
      }

      .cls-43 {
        fill: url(#New_Gradient_Swatch_5-34);
      }

      .cls-44 {
        fill: url(#New_Gradient_Swatch_5-20);
      }

      .cls-45 {
        fill: url(#New_Gradient_Swatch_5-21);
      }

      .cls-46 {
        fill: url(#New_Gradient_Swatch_5-22);
      }

      .cls-47 {
        fill: url(#New_Gradient_Swatch_5-36);
      }

      .cls-48 {
        fill: url(#New_Gradient_Swatch_5-33);
      }

      .cls-49 {
        fill: url(#New_Gradient_Swatch_5-37);
      }

      .cls-50 {
        fill: url(#New_Gradient_Swatch_5-23);
      }

      .cls-51 {
        fill: url(#New_Gradient_Swatch_5-25);
      }

      .cls-52 {
        fill: url(#New_Gradient_Swatch_5-27);
      }

      .cls-53 {
        fill: url(#New_Gradient_Swatch_5-26);
      }

      .cls-54 {
        fill: url(#New_Gradient_Swatch_5-24);
      }

      .cls-55 {
        fill: url(#New_Gradient_Swatch_5-28);
      }

      .cls-56 {
        fill: url(#New_Gradient_Swatch_5-29);
      }

      .cls-57 {
        clip-path: url(#clippath);
      }

      .cls-58 {
        fill: #e7d8ba;
      }

      .cls-59 {
        fill: #d46c32;
      }

      .cls-60 {
        fill: #183e4b;
      }

      .cls-61 {
        fill: #231f20;
      }

      .cls-62 {
        fill: #3f6b76;
      }

      .cls-63 {
        fill: #2c4f5d;
      }

      .cls-64 {
        fill: #476674;
      }

      .cls-65 {
        fill: url(#linear-gradient-2);
      }

      .cls-65, .cls-66, .cls-67 {
        mix-blend-mode: multiply;
      }

      .cls-66 {
        fill: url(#linear-gradient-3);
      }

      .cls-68 {
        clip-path: url(#clippath-1);
      }

      .cls-69 {
        fill: url(#New_Gradient_Swatch_5);
      }

      .cls-67 {
        fill: url(#linear-gradient);
      }

      .cls-70 {
        isolation: isolate;
      }

      .cls-71 {
        fill: url(#New_Gradient_Swatch_5-2);
      }

      .cls-72 {
        fill: url(#New_Gradient_Swatch_5-3);
      }

      .cls-73 {
        fill: url(#New_Gradient_Swatch_5-6);
      }

      .cls-74 {
        fill: url(#New_Gradient_Swatch_5-7);
      }

      .cls-75 {
        fill: url(#New_Gradient_Swatch_5-4);
      }

      .cls-76 {
        fill: url(#New_Gradient_Swatch_5-5);
      }

      .cls-77 {
        fill: url(#New_Gradient_Swatch_5-9);
      }

      .cls-78 {
        fill: url(#New_Gradient_Swatch_5-8);
      }
    </style>
    <clipPath
       id="clippath">
      <circle
         class="cls-1"
         cx="107.96"
         cy="103.91"
         r="88.989998"
         id="circle20" />
    </clipPath>
    <linearGradient
       id="linear-gradient"
       x1="107.98"
       y1="14.98"
       x2="107.98"
       y2="192.92999"
       gradientUnits="userSpaceOnUse">
      <stop
         offset=".05"
         stop-color="#fff"
         id="stop23" />
      <stop
         offset=".14"
         stop-color="#fcfcfc"
         stop-opacity="1"
         id="stop25" />
      <stop
         offset=".21"
         stop-color="#f2f4f5"
         stop-opacity=".98"
         id="stop27" />
      <stop
         offset=".27"
         stop-color="#e2e7e9"
         stop-opacity=".97"
         id="stop29" />
      <stop
         offset=".33"
         stop-color="#ccd5d7"
         stop-opacity=".94"
         id="stop31" />
      <stop
         offset=".38"
         stop-color="#aebdc1"
         stop-opacity=".9"
         id="stop33" />
      <stop
         offset=".43"
         stop-color="#8b9fa5"
         stop-opacity=".86"
         id="stop35" />
      <stop
         offset=".48"
         stop-color="#607c85"
         stop-opacity=".81"
         id="stop37" />
      <stop
         offset=".53"
         stop-color="#305560"
         stop-opacity=".75"
         id="stop39" />
      <stop
         offset=".56"
         stop-color="#093542"
         stop-opacity=".7"
         id="stop41" />
    </linearGradient>
    <clipPath
       id="clippath-1">
      <path
         class="cls-1"
         d="m 19.54,117.71 c 7.33,41.72 44.12,73.45 88.43,73.45 44.31,0 81.09,-31.73 88.43,-73.45 z"
         id="path44" />
    </clipPath>
    <linearGradient
       id="New_Gradient_Swatch_5"
       data-name="New Gradient Swatch 5"
       x1="37.099998"
       y1="177.89999"
       x2="37.099998"
       y2="115.67"
       gradientUnits="userSpaceOnUse">
      <stop
         offset="0"
         stop-color="#dbc89b"
         id="stop47" />
      <stop
         offset="1"
         stop-color="#fff"
         stop-opacity="0"
         id="stop49" />
    </linearGradient>
    <linearGradient
       id="New_Gradient_Swatch_5-2"
       data-name="New Gradient Swatch 5"
       x1="43.470001"
       y1="175.77"
       x2="43.470001"
       y2="116.08"
       xlink:href="#New_Gradient_Swatch_5" />
    <linearGradient
       id="New_Gradient_Swatch_5-3"
       data-name="New Gradient Swatch 5"
       x1="48.139999"
       y1="179.52"
       x2="48.139999"
       y2="116.08"
       xlink:href="#New_Gradient_Swatch_5" />
    <linearGradient
       id="New_Gradient_Swatch_5-4"
       data-name="New Gradient Swatch 5"
       x1="52.75"
       y1="182.67999"
       x2="52.75"
       y2="116.07"
       xlink:href="#New_Gradient_Swatch_5" />
    <linearGradient
       id="New_Gradient_Swatch_5-5"
       data-name="New Gradient Swatch 5"
       x1="57.419998"
       y1="184.12"
       x2="57.419998"
       y2="116.07"
       xlink:href="#New_Gradient_Swatch_5" />
    <linearGradient
       id="New_Gradient_Swatch_5-6"
       data-name="New Gradient Swatch 5"
       x1="60.110001"
       y1="149.35001"
       x2="60.110001"
       y2="118.59"
       xlink:href="#New_Gradient_Swatch_5" />
    <linearGradient
       id="New_Gradient_Swatch_5-7"
       data-name="New Gradient Swatch 5"
       x1="64.580002"
       y1="140.78"
       x2="64.580002"
       y2="119.1"
       xlink:href="#New_Gradient_Swatch_5" />
    <linearGradient
       id="New_Gradient_Swatch_5-8"
       data-name="New Gradient Swatch 5"
       x1="73.080002"
       y1="131.39"
       x2="73.080002"
       y2="115.66"
       xlink:href="#New_Gradient_Swatch_5" />
    <linearGradient
       id="New_Gradient_Swatch_5-9"
       data-name="New Gradient Swatch 5"
       x1="73.980003"
       y1="149.24001"
       x2="73.980003"
       y2="192.25"
       xlink:href="#New_Gradient_Swatch_5" />
    <linearGradient
       id="New_Gradient_Swatch_5-10"
       data-name="New Gradient Swatch 5"
       x1="97.07"
       y1="170.33"
       x2="97.07"
       y2="111.52"
       xlink:href="#New_Gradient_Swatch_5" />
    <linearGradient
       id="New_Gradient_Swatch_5-11"
       data-name="New Gradient Swatch 5"
       x1="104.54"
       y1="170.33"
       x2="104.54"
       y2="141.73"
       xlink:href="#New_Gradient_Swatch_5" />
    <linearGradient
       id="New_Gradient_Swatch_5-12"
       data-name="New Gradient Swatch 5"
       x1="110.19"
       y1="170.33"
       x2="110.19"
       y2="141.73"
       xlink:href="#New_Gradient_Swatch_5" />
    <linearGradient
       id="New_Gradient_Swatch_5-13"
       data-name="New Gradient Swatch 5"
       x1="104.54"
       y1="140.57001"
       x2="104.54"
       y2="111.97"
       xlink:href="#New_Gradient_Swatch_5" />
    <linearGradient
       id="New_Gradient_Swatch_5-14"
       data-name="New Gradient Swatch 5"
       x1="110.19"
       y1="140.57001"
       x2="110.19"
       y2="111.97"
       xlink:href="#New_Gradient_Swatch_5" />
    <linearGradient
       id="New_Gradient_Swatch_5-15"
       data-name="New Gradient Swatch 5"
       x1="82.870003"
       y1="181.5"
       x2="163.69"
       y2="181.5"
       xlink:href="#New_Gradient_Swatch_5" />
    <linearGradient
       id="New_Gradient_Swatch_5-16"
       data-name="New Gradient Swatch 5"
       x1="87.489998"
       y1="184.60001"
       x2="166.39999"
       y2="184.60001"
       xlink:href="#New_Gradient_Swatch_5" />
    <linearGradient
       id="New_Gradient_Swatch_5-17"
       data-name="New Gradient Swatch 5"
       x1="92.529999"
       y1="187.59"
       x2="168.95"
       y2="187.59"
       xlink:href="#New_Gradient_Swatch_5" />
    <linearGradient
       id="New_Gradient_Swatch_5-18"
       data-name="New Gradient Swatch 5"
       x1="97.690002"
       y1="190.81"
       x2="171.74001"
       y2="190.81"
       xlink:href="#New_Gradient_Swatch_5" />
    <linearGradient
       id="New_Gradient_Swatch_5-19"
       data-name="New Gradient Swatch 5"
       x1="77.959999"
       y1="186.89"
       x2="77.959999"
       y2="118.96"
       xlink:href="#New_Gradient_Swatch_5" />
    <linearGradient
       id="New_Gradient_Swatch_5-20"
       data-name="New Gradient Swatch 5"
       x1="82.209999"
       y1="182.44"
       x2="82.209999"
       y2="122.93"
       xlink:href="#New_Gradient_Swatch_5" />
    <linearGradient
       id="New_Gradient_Swatch_5-21"
       data-name="New Gradient Swatch 5"
       x1="86.459999"
       y1="178.24001"
       x2="86.459999"
       y2="118.96"
       xlink:href="#New_Gradient_Swatch_5" />
    <linearGradient
       id="New_Gradient_Swatch_5-22"
       data-name="New Gradient Swatch 5"
       x1="90.699997"
       y1="174"
       x2="90.699997"
       y2="122.93"
       xlink:href="#New_Gradient_Swatch_5" />
    <linearGradient
       id="New_Gradient_Swatch_5-23"
       data-name="New Gradient Swatch 5"
       x1="125.89"
       y1="168.78999"
       x2="125.89"
       y2="115.71"
       xlink:href="#New_Gradient_Swatch_5" />
    <linearGradient
       id="New_Gradient_Swatch_5-24"
       data-name="New Gradient Swatch 5"
       x1="129.46001"
       y1="163.92999"
       x2="129.46001"
       y2="113.66"
       xlink:href="#New_Gradient_Swatch_5" />
    <linearGradient
       id="New_Gradient_Swatch_5-25"
       data-name="New Gradient Swatch 5"
       x1="133.03"
       y1="159.09"
       x2="133.03"
       y2="111.69"
       xlink:href="#New_Gradient_Swatch_5" />
    <linearGradient
       id="New_Gradient_Swatch_5-26"
       data-name="New Gradient Swatch 5"
       x1="136.60001"
       y1="154.49001"
       x2="136.60001"
       y2="109.72"
       xlink:href="#New_Gradient_Swatch_5" />
    <linearGradient
       id="New_Gradient_Swatch_5-27"
       data-name="New Gradient Swatch 5"
       x1="151.17"
       y1="165.5"
       x2="151.17"
       y2="160.94"
       xlink:href="#New_Gradient_Swatch_5" />
    <linearGradient
       id="New_Gradient_Swatch_5-28"
       data-name="New Gradient Swatch 5"
       x1="151.10001"
       y1="169.09"
       x2="151.10001"
       y2="164.53"
       xlink:href="#New_Gradient_Swatch_5" />
    <linearGradient
       id="New_Gradient_Swatch_5-29"
       data-name="New Gradient Swatch 5"
       x1="137.23"
       y1="109.72"
       x2="137.23"
       y2="105.33"
       xlink:href="#New_Gradient_Swatch_5" />
    <linearGradient
       id="New_Gradient_Swatch_5-30"
       data-name="New Gradient Swatch 5"
       x1="148.92999"
       y1="162.61"
       x2="148.92999"
       y2="120.5"
       xlink:href="#New_Gradient_Swatch_5" />
    <linearGradient
       id="New_Gradient_Swatch_5-31"
       data-name="New Gradient Swatch 5"
       x1="146.32001"
       y1="159.92999"
       x2="146.32001"
       y2="125.57"
       xlink:href="#New_Gradient_Swatch_5" />
    <linearGradient
       id="New_Gradient_Swatch_5-32"
       data-name="New Gradient Swatch 5"
       x1="170.13"
       y1="166.89"
       x2="170.13"
       y2="119.12"
       xlink:href="#New_Gradient_Swatch_5" />
    <linearGradient
       id="New_Gradient_Swatch_5-33"
       data-name="New Gradient Swatch 5"
       x1="171.92999"
       y1="163.05"
       x2="171.92999"
       y2="116.08"
       xlink:href="#New_Gradient_Swatch_5" />
    <linearGradient
       id="New_Gradient_Swatch_5-34"
       data-name="New Gradient Swatch 5"
       x1="190.92"
       y1="134.41"
       x2="190.92"
       y2="116.54"
       xlink:href="#New_Gradient_Swatch_5" />
    <linearGradient
       id="New_Gradient_Swatch_5-35"
       data-name="New Gradient Swatch 5"
       x1="194.72"
       y1="130.13"
       x2="194.72"
       y2="116.54"
       xlink:href="#New_Gradient_Swatch_5" />
    <linearGradient
       id="New_Gradient_Swatch_5-36"
       data-name="New Gradient Swatch 5"
       x1="151.47"
       y1="133.57001"
       x2="151.47"
       y2="130.48"
       xlink:href="#New_Gradient_Swatch_5" />
    <linearGradient
       id="New_Gradient_Swatch_5-37"
       data-name="New Gradient Swatch 5"
       x1="151.47"
       y1="138.75"
       x2="151.47"
       y2="135.66"
       xlink:href="#New_Gradient_Swatch_5" />
    <linearGradient
       id="New_Gradient_Swatch_5-38"
       data-name="New Gradient Swatch 5"
       x1="151.64"
       y1="143.94"
       x2="151.64"
       y2="140.85001"
       xlink:href="#New_Gradient_Swatch_5" />
    <linearGradient
       id="New_Gradient_Swatch_5-39"
       data-name="New Gradient Swatch 5"
       x1="151.61"
       y1="149.06"
       x2="151.61"
       y2="145.97"
       xlink:href="#New_Gradient_Swatch_5" />
    <linearGradient
       id="New_Gradient_Swatch_5-40"
       data-name="New Gradient Swatch 5"
       x1="178.91"
       y1="123.4"
       x2="178.91"
       y2="120.3"
       xlink:href="#New_Gradient_Swatch_5" />
    <linearGradient
       id="New_Gradient_Swatch_5-41"
       data-name="New Gradient Swatch 5"
       x1="178.91"
       y1="128.48"
       x2="178.91"
       y2="125.39"
       xlink:href="#New_Gradient_Swatch_5" />
    <linearGradient
       id="New_Gradient_Swatch_5-42"
       data-name="New Gradient Swatch 5"
       x1="178.91"
       y1="133.56"
       x2="178.91"
       y2="130.47"
       xlink:href="#New_Gradient_Swatch_5" />
    <linearGradient
       id="New_Gradient_Swatch_5-43"
       data-name="New Gradient Swatch 5"
       x1="178.91"
       y1="138.64"
       x2="178.91"
       y2="135.55"
       xlink:href="#New_Gradient_Swatch_5" />
    <linearGradient
       id="New_Gradient_Swatch_5-44"
       data-name="New Gradient Swatch 5"
       x1="178.91"
       y1="143.72"
       x2="178.91"
       y2="140.63"
       xlink:href="#New_Gradient_Swatch_5" />
    <linearGradient
       id="New_Gradient_Swatch_5-45"
       data-name="New Gradient Swatch 5"
       x1="178.91"
       y1="148.8"
       x2="178.91"
       y2="145.71001"
       xlink:href="#New_Gradient_Swatch_5" />
    <linearGradient
       id="New_Gradient_Swatch_5-46"
       data-name="New Gradient Swatch 5"
       x1="178.91"
       y1="153.88"
       x2="178.91"
       y2="150.78999"
       xlink:href="#New_Gradient_Swatch_5" />
    <linearGradient
       id="New_Gradient_Swatch_5-47"
       data-name="New Gradient Swatch 5"
       x1="178.91"
       y1="158.96001"
       x2="178.91"
       y2="155.87"
       xlink:href="#New_Gradient_Swatch_5" />
    <linearGradient
       id="New_Gradient_Swatch_5-48"
       data-name="New Gradient Swatch 5"
       x1="183.72"
       y1="123.4"
       x2="183.72"
       y2="120.3"
       xlink:href="#New_Gradient_Swatch_5" />
    <linearGradient
       id="New_Gradient_Swatch_5-49"
       data-name="New Gradient Swatch 5"
       x1="183.72"
       y1="128.48"
       x2="183.72"
       y2="125.39"
       xlink:href="#New_Gradient_Swatch_5" />
    <linearGradient
       id="New_Gradient_Swatch_5-50"
       data-name="New Gradient Swatch 5"
       x1="183.72"
       y1="133.56"
       x2="183.72"
       y2="130.47"
       xlink:href="#New_Gradient_Swatch_5" />
    <linearGradient
       id="New_Gradient_Swatch_5-51"
       data-name="New Gradient Swatch 5"
       x1="183.72"
       y1="138.64"
       x2="183.72"
       y2="135.55"
       xlink:href="#New_Gradient_Swatch_5" />
    <linearGradient
       id="New_Gradient_Swatch_5-52"
       data-name="New Gradient Swatch 5"
       x1="183.72"
       y1="143.72"
       x2="183.72"
       y2="140.63"
       xlink:href="#New_Gradient_Swatch_5" />
    <linearGradient
       id="New_Gradient_Swatch_5-53"
       data-name="New Gradient Swatch 5"
       x1="183.72"
       y1="148.8"
       x2="183.72"
       y2="145.71001"
       xlink:href="#New_Gradient_Swatch_5" />
    <linearGradient
       id="New_Gradient_Swatch_5-54"
       data-name="New Gradient Swatch 5"
       x1="183.72"
       y1="153.88"
       x2="183.72"
       y2="150.78999"
       xlink:href="#New_Gradient_Swatch_5" />
    <linearGradient
       id="New_Gradient_Swatch_5-55"
       data-name="New Gradient Swatch 5"
       x1="183.72"
       y1="158.96001"
       x2="183.72"
       y2="155.87"
       xlink:href="#New_Gradient_Swatch_5" />
    <linearGradient
       id="New_Gradient_Swatch_5-56"
       data-name="New Gradient Swatch 5"
       x1="118.38"
       y1="155.75"
       x2="118.38"
       y2="152.66"
       xlink:href="#New_Gradient_Swatch_5" />
    <linearGradient
       id="New_Gradient_Swatch_5-57"
       data-name="New Gradient Swatch 5"
       x1="118.38"
       y1="159.63"
       x2="118.38"
       y2="156.53999"
       xlink:href="#New_Gradient_Swatch_5" />
    <linearGradient
       id="New_Gradient_Swatch_5-58"
       data-name="New Gradient Swatch 5"
       x1="118.38"
       y1="163.5"
       x2="118.38"
       y2="160.41"
       xlink:href="#New_Gradient_Swatch_5" />
    <linearGradient
       id="New_Gradient_Swatch_5-59"
       data-name="New Gradient Swatch 5"
       x1="124.52"
       y1="155.75"
       x2="124.52"
       y2="152.66"
       xlink:href="#New_Gradient_Swatch_5" />
    <linearGradient
       id="New_Gradient_Swatch_5-60"
       data-name="New Gradient Swatch 5"
       x1="124.52"
       y1="159.63"
       x2="124.52"
       y2="156.53999"
       xlink:href="#New_Gradient_Swatch_5" />
    <linearGradient
       id="New_Gradient_Swatch_5-61"
       data-name="New Gradient Swatch 5"
       x1="124.52"
       y1="163.5"
       x2="124.52"
       y2="160.41"
       xlink:href="#New_Gradient_Swatch_5" />
    <linearGradient
       id="New_Gradient_Swatch_5-62"
       data-name="New Gradient Swatch 5"
       x1="121.45"
       y1="147.11"
       x2="121.45"
       y2="151.5"
       xlink:href="#New_Gradient_Swatch_5" />
    <linearGradient
       id="New_Gradient_Swatch_5-63"
       data-name="New Gradient Swatch 5"
       x1="42.849998"
       y1="165.10001"
       x2="42.849998"
       y2="160.72"
       xlink:href="#New_Gradient_Swatch_5" />
    <linearGradient
       id="New_Gradient_Swatch_5-64"
       data-name="New Gradient Swatch 5"
       x1="121.45"
       y1="168.92"
       x2="121.45"
       y2="164.53"
       xlink:href="#New_Gradient_Swatch_5" />
    <linearGradient
       id="linear-gradient-2"
       x1="107.91"
       y1="157.34"
       x2="107.91"
       y2="117.61"
       gradientUnits="userSpaceOnUse">
      <stop
         offset="0"
         stop-color="#fff"
         id="stop115" />
      <stop
         offset=".17"
         stop-color="#ccc"
         id="stop117" />
      <stop
         offset=".47"
         stop-color="#757575"
         id="stop119" />
      <stop
         offset=".72"
         stop-color="#363636"
         id="stop121" />
      <stop
         offset=".91"
         stop-color="#0e0e0e"
         id="stop123" />
      <stop
         offset="1"
         stop-color="#000"
         id="stop125" />
    </linearGradient>
    <linearGradient
       id="linear-gradient-3"
       y1="123.75"
       xlink:href="#linear-gradient-2" />
    <linearGradient
       inkscape:collect="always"
       xlink:href="#New_Gradient_Swatch_5"
       id="linearGradient492"
       gradientUnits="userSpaceOnUse"
       x1="37.099998"
       y1="177.89999"
       x2="37.099998"
       y2="115.67" />
    <linearGradient
       inkscape:collect="always"
       xlink:href="#linear-gradient-2"
       id="linearGradient494"
       gradientUnits="userSpaceOnUse"
       x1="107.91"
       y1="157.34"
       x2="107.91"
       y2="117.61" />
  </defs>
  <g
     id="g141"
     style="isolation:isolate"
     transform="matrix(2.1035637,0,0,2.1893736,167.45776,-452.24929)">
    <path
       class="cls-61"
       d="m 15.69,208.44 h 6.62 v 35.69 h 18.47 l -0.75,6.21 H 15.69 Z"
       id="path131" />
    <path
       class="cls-61"
       d="m 43.02,229.39 c 0,-12.55 8.34,-22.13 21.06,-22.13 12.72,0 21.12,9.59 21.12,22.13 0,12.54 -8.52,22.13 -21.12,22.13 -12.6,0 -21.06,-9.59 -21.06,-22.13 z m 35.1,0 c 0,-9 -5.41,-15.68 -14.04,-15.68 -8.63,0 -13.98,6.69 -13.98,15.68 0,8.99 5.41,15.68 13.98,15.68 8.57,0 14.04,-6.81 14.04,-15.68 z"
       id="path133" />
    <path
       class="cls-61"
       d="m 91.29,229.45 c 0,-13.08 8.63,-22.19 20.66,-22.19 5.24,0 10.01,1.66 14.67,4.97 l -0.86,6.92 h -0.29 c -4.03,-3.55 -8.57,-5.45 -13.18,-5.45 -8.23,0 -13.87,6.33 -13.87,15.62 0,9.29 5.7,15.74 14.04,15.74 4.6,0 9.15,-1.95 13.18,-5.5 h 0.29 l 0.86,6.92 c -4.55,3.31 -9.49,5.03 -14.79,5.03 -12.2,0 -20.71,-9 -20.71,-22.07 z"
       id="path135" />
    <path
       class="cls-61"
       d="m 153.54,208.44 16.51,41.66 -0.23,0.24 h -7.19 l -3.68,-9.82 h -17.84 l -3.62,9.82 h -7.14 l -0.23,-0.24 16.68,-41.66 h 6.73 z m -10.41,26.81 h 13.81 l -4.14,-11.07 c -0.98,-2.72 -1.96,-5.68 -2.7,-8.52 h -0.17 c -0.75,2.84 -1.73,5.8 -2.7,8.52 l -4.09,11.07 z"
       id="path137" />
    <path
       class="cls-61"
       d="m 175.05,208.44 h 6.62 v 35.69 h 18.47 l -0.75,6.21 h -24.34 z"
       id="path139" />
  </g>
  <g
     id="g157"
     style="isolation:isolate"
     transform="matrix(2.1035637,0,0,2.1893736,167.45776,-476.24929)">
    <path
       class="cls-61"
       d="M 15.77,300.53 V 267.8 h 9.53 c 11.92,0 18.33,5.87 18.33,16.23 0,10.36 -6.82,16.5 -18.33,16.5 z m 5.19,-4.76 h 3.84 c 9.03,0 13.41,-3.75 13.41,-11.84 0,-8.09 -4.2,-11.37 -13.41,-11.37 h -3.84 z"
       id="path143" />
    <path
       class="cls-61"
       d="m 55.23,285.97 v 9.85 H 69.54 L 69,300.53 H 50.04 V 267.8 H 69 l 0.54,4.71 H 55.23 v 9.11 h 13.09 v 4.35 z"
       id="path145" />
    <path
       class="cls-61"
       d="m 85.61,301.04 -12.96,-33.05 0.14,-0.18 h 5.69 l 7.09,19.09 c 0.68,1.71 1.49,3.93 2.12,6.1 h 0.09 c 0.68,-2.17 1.4,-4.25 2.08,-6.01 l 7.13,-19.18 h 5.6 l 0.18,0.18 -13,33.05 h -4.15 z"
       id="path147" />
    <path
       class="cls-61"
       d="m 107.19,267.8 h 5.19 v 32.73 h -5.19 z"
       id="path149" />
    <path
       class="cls-61"
       d="m 118.88,284.21 c 0,-10.22 6.77,-17.34 16.21,-17.34 4.11,0 7.86,1.29 11.51,3.88 l -0.68,5.41 h -0.23 c -3.16,-2.77 -6.73,-4.25 -10.34,-4.25 -6.46,0 -10.88,4.95 -10.88,12.2 0,7.25 4.47,12.3 11.02,12.3 3.61,0 7.18,-1.53 10.34,-4.3 h 0.22 l 0.68,5.41 c -3.57,2.59 -7.45,3.93 -11.6,3.93 -9.57,0 -16.25,-7.03 -16.25,-17.24 z"
       id="path151" />
    <path
       class="cls-61"
       d="m 159.38,285.97 v 9.85 h 14.31 l -0.54,4.71 H 154.19 V 267.8 h 18.96 l 0.54,4.71 h -14.31 v 9.11 h 13.09 v 4.35 z"
       id="path153" />
    <path
       class="cls-61"
       d="m 178.66,298.49 0.72,-5.18 h 0.18 c 2.39,1.8 5.73,3.51 9.26,3.51 3.53,0 5.64,-2.13 5.64,-4.76 0,-2.4 -1.17,-4.07 -6.82,-6.47 -6.46,-2.77 -8.71,-5.69 -8.71,-10.12 0,-4.81 3.75,-8.6 10.25,-8.6 3.57,0 6.59,1.02 8.94,2.4 l -0.68,5.13 h -0.23 c -2.44,-1.85 -5.33,-2.96 -8.17,-2.96 -3.02,0 -4.7,1.71 -4.7,3.93 0,2.22 1.08,3.37 6.73,5.96 7,3.24 8.85,6.15 8.85,10.45 0,5.36 -4.29,9.66 -11.11,9.66 -4.24,0 -7.77,-1.48 -10.16,-2.96 z"
       id="path155" />
  </g>
  <g
     class="cls-57"
     clip-path="url(#clippath)"
     id="g311"
     style="isolation:isolate"
     transform="translate(-7.6286503,-11.97)">
    <g
       id="Imagery">
      <circle
         id="TONE"
         class="cls-64"
         cx="107.81"
         cy="103.95"
         r="88.980003" />
      <circle
         id="Shading"
         class="cls-67"
         cx="107.98"
         cy="103.95"
         r="88.980003"
         style="fill:url(#linear-gradient)" />
      <g
         id="Circutry">
        <path
           class="cls-63"
           d="m 19.54,117.71 c 7.33,43.55 44.12,76.67 88.43,76.67 44.31,0 81.09,-33.12 88.43,-76.67 z"
           id="path163" />
        <g
           id="g299">
          <path
             class="cls-1"
             d="m 19.54,117.71 c 7.33,43.55 44.12,76.67 88.43,76.67 44.31,0 81.09,-33.12 88.43,-76.67 z"
             id="path165" />
          <g
             class="cls-68"
             clip-path="url(#clippath-1)"
             id="g297">
            <g
               id="g295">
              <path
                 class="cls-69"
                 d="m 26.98,130.78 c -0.6,-0.79 -0.94,-1.77 -0.94,-2.77 v -12.34 h -2.19 v 12.34 c 0,1.46 0.49,2.9 1.38,4.07 l 21.87,28.6 c 0.67,0.88 1.04,1.97 1.04,3.08 v 14.14 h 2.19 v -14.14 c 0,-1.57 -0.53,-3.13 -1.49,-4.38 l -21.87,-28.6 z"
                 id="path167"
                 style="fill:url(#linearGradient492)" />
              <path
                 class="cls-71"
                 d="m 33.01,128.91 c -0.66,-0.86 -1.03,-1.94 -1.03,-3.03 v -9.8 h -1.31 v 9.8 c 0,1.37 0.46,2.72 1.29,3.81 l 21.87,28.6 c 0.73,0.95 1.13,2.14 1.13,3.34 v 14.14 h 1.31 v -14.14 c 0,-1.48 -0.5,-2.94 -1.4,-4.12 L 33,128.91 Z"
                 id="path169"
                 style="fill:url(#New_Gradient_Swatch_5-2)" />
              <path
                 class="cls-72"
                 d="m 37.67,126.87 c -0.66,-0.87 -1.03,-1.94 -1.03,-3.03 v -7.76 h -1.31 v 7.76 c 0,1.37 0.46,2.72 1.29,3.81 l 21.87,28.6 c 0.73,0.96 1.13,2.14 1.13,3.34 v 19.93 h 1.31 v -19.93 c 0,-1.48 -0.5,-2.94 -1.4,-4.12 l -21.87,-28.6 z"
                 id="path171"
                 style="fill:url(#New_Gradient_Swatch_5-3)" />
              <path
                 class="cls-75"
                 d="m 42.33,124.8 c -0.66,-0.86 -1.03,-1.94 -1.03,-3.04 l -0.1,-5.69 -1.31,0.02 0.1,5.68 c 0,1.37 0.46,2.72 1.29,3.81 l 21.87,28.6 c 0.73,0.95 1.13,2.14 1.13,3.34 v 25.17 h 1.31 v -25.17 c 0,-1.48 -0.5,-2.94 -1.4,-4.12 L 42.32,124.8 Z"
                 id="path173"
                 style="fill:url(#New_Gradient_Swatch_5-4)" />
              <path
                 class="cls-76"
                 d="m 47,123.28 c -0.66,-0.87 -1.03,-1.94 -1.03,-3.04 l -0.08,-4.17 -1.31,0.03 0.08,4.16 c 0,1.37 0.46,2.72 1.29,3.81 l 21.87,28.6 c 0.73,0.95 1.13,2.14 1.13,3.33 l -0.09,28.12 h 1.31 c 0,0 0.09,-28.12 0.09,-28.12 0,-1.48 -0.5,-2.94 -1.4,-4.12 l -21.87,-28.6 z"
                 id="path175"
                 style="fill:url(#New_Gradient_Swatch_5-5)" />
              <path
                 class="cls-73"
                 d="m 50.07,122.98 c 0.25,0 0.49,-0.05 0.72,-0.13 l 17.59,23.01 c -0.27,0.36 -0.44,0.81 -0.44,1.3 0,1.21 1,2.19 2.22,2.19 1.22,0 2.22,-0.98 2.22,-2.19 0,-1.21 -1,-2.19 -2.22,-2.19 -0.25,0 -0.49,0.05 -0.72,0.13 L 51.85,122.09 c 0.27,-0.36 0.44,-0.81 0.44,-1.3 0,-1.21 -1,-2.19 -2.22,-2.19 -1.22,0 -2.22,0.98 -2.22,2.19 0,1.21 1,2.19 2.22,2.19 z m 21,24.18 c 0,0.49 -0.41,0.9 -0.91,0.9 -0.5,0 -0.91,-0.4 -0.91,-0.9 0,-0.5 0.41,-0.9 0.91,-0.9 0.5,0 0.91,0.4 0.91,0.9 z m -21,-27.27 c 0.5,0 0.91,0.4 0.91,0.9 0,0.5 -0.41,0.9 -0.91,0.9 -0.5,0 -0.91,-0.4 -0.91,-0.9 0,-0.5 0.41,-0.9 0.91,-0.9 z"
                 id="path177"
                 style="fill:url(#New_Gradient_Swatch_5-6)" />
              <path
                 class="cls-74"
                 d="m 57.96,123.49 c 0.25,0 0.49,-0.05 0.72,-0.13 l 10.71,13.96 c -0.26,0.36 -0.41,0.79 -0.41,1.26 0,1.21 1,2.19 2.22,2.19 1.22,0 2.22,-0.98 2.22,-2.19 0,-1.21 -1,-2.19 -2.22,-2.19 -0.27,0 -0.53,0.06 -0.77,0.14 L 59.74,122.59 c 0.27,-0.36 0.44,-0.81 0.44,-1.3 0,-1.21 -1,-2.19 -2.22,-2.19 -1.22,0 -2.22,0.98 -2.22,2.19 0,1.21 1,2.19 2.22,2.19 z m 14.14,15.09 c 0,0.49 -0.41,0.9 -0.91,0.9 -0.5,0 -0.91,-0.4 -0.91,-0.9 0,-0.5 0.41,-0.9 0.91,-0.9 0.5,0 0.91,0.4 0.91,0.9 z M 57.96,120.4 c 0.5,0 0.91,0.4 0.91,0.9 0,0.5 -0.41,0.9 -0.91,0.9 -0.5,0 -0.91,-0.4 -0.91,-0.9 0,-0.5 0.41,-0.9 0.91,-0.9 z"
                 id="path179"
                 style="fill:url(#New_Gradient_Swatch_5-7)" />
              <path
                 class="cls-78"
                 d="m 71.76,130.96 c 0.4,0.29 0.86,0.43 1.32,0.43 0.68,0 1.35,-0.31 1.79,-0.89 0.73,-0.97 0.52,-2.35 -0.46,-3.07 -0.2,-0.15 -0.43,-0.25 -0.65,-0.32 l -0.11,-11.45 h -1.31 c 0,0 0.11,11.45 0.11,11.45 -0.44,0.13 -0.84,0.39 -1.14,0.78 v 0 c -0.73,0.97 -0.52,2.35 0.46,3.07 z m 0.59,-2.3 c 0.3,-0.4 0.87,-0.48 1.27,-0.19 0.19,0.14 0.32,0.35 0.36,0.59 0.04,0.24 -0.02,0.47 -0.17,0.67 -0.3,0.4 -0.87,0.48 -1.27,0.19 -0.4,-0.29 -0.49,-0.86 -0.19,-1.26 z"
                 id="path181"
                 style="fill:url(#New_Gradient_Swatch_5-8)" />
              <path
                 class="cls-77"
                 d="m 75.43,188.29 c -0.2,-0.15 -0.43,-0.25 -0.65,-0.32 L 74.5,153.52 c 0.44,-0.13 0.85,-0.39 1.14,-0.78 0.35,-0.47 0.5,-1.05 0.41,-1.63 -0.09,-0.58 -0.4,-1.09 -0.87,-1.44 -0.98,-0.72 -2.38,-0.52 -3.1,0.46 v 0 c -0.73,0.97 -0.52,2.35 0.46,3.07 0.2,0.15 0.42,0.26 0.65,0.33 l 0.28,34.44 c -0.44,0.13 -0.85,0.39 -1.14,0.79 -0.73,0.97 -0.52,2.35 0.46,3.07 0.4,0.29 0.86,0.43 1.32,0.43 0.68,0 1.35,-0.31 1.79,-0.89 0.73,-0.97 0.52,-2.35 -0.46,-3.07 z m -2.3,-37.39 c 0.14,-0.19 0.36,-0.32 0.59,-0.35 0.24,-0.04 0.48,0.02 0.67,0.17 0.2,0.14 0.32,0.35 0.36,0.59 0.04,0.24 -0.02,0.47 -0.17,0.67 -0.14,0.19 -0.36,0.32 -0.6,0.35 -0.24,0.04 -0.48,-0.02 -0.67,-0.17 -0.4,-0.29 -0.49,-0.86 -0.19,-1.25 z m 1.71,39.69 c -0.3,0.4 -0.87,0.48 -1.27,0.19 -0.19,-0.14 -0.32,-0.35 -0.36,-0.59 -0.04,-0.24 0.02,-0.47 0.17,-0.67 0.3,-0.4 0.87,-0.48 1.27,-0.19 0.4,0.29 0.49,0.86 0.19,1.26 z"
                 id="path183"
                 style="fill:url(#New_Gradient_Swatch_5-9)" />
              <path
                 class="cls-6"
                 d="m 95.63,115.48 c 0.2,0.15 0.42,0.25 0.65,0.33 l 0.28,50.25 c -0.44,0.13 -0.85,0.39 -1.14,0.78 v 0 c -0.73,0.97 -0.52,2.35 0.46,3.07 0.4,0.29 0.86,0.43 1.32,0.43 0.68,0 1.35,-0.31 1.79,-0.89 0.73,-0.97 0.52,-2.35 -0.46,-3.07 -0.2,-0.15 -0.42,-0.25 -0.65,-0.32 L 97.6,115.77 c 0.45,-0.14 0.86,-0.37 1.14,-0.75 0.35,-0.47 0.5,-1.05 0.41,-1.63 -0.09,-0.58 -0.4,-1.09 -0.87,-1.44 -0.48,-0.35 -1.06,-0.49 -1.65,-0.41 -0.59,0.09 -1.1,0.39 -1.46,0.86 v 0 c -0.73,0.97 -0.52,2.35 0.46,3.07 z m 2.3,53.2 c -0.14,0.19 -0.36,0.32 -0.6,0.35 -0.24,0.03 -0.48,-0.02 -0.67,-0.17 -0.4,-0.29 -0.49,-0.86 -0.19,-1.25 0.3,-0.4 0.87,-0.48 1.27,-0.19 0.19,0.14 0.32,0.35 0.36,0.59 0.04,0.24 -0.02,0.47 -0.17,0.67 z m -1.71,-55.49 v 0 c 0.14,-0.19 0.36,-0.32 0.6,-0.35 0.04,0 0.09,0 0.13,0 0.19,0 0.38,0.06 0.54,0.18 0.2,0.14 0.32,0.35 0.36,0.59 0.04,0.24 -0.02,0.47 -0.17,0.67 -0.14,0.19 -0.36,0.32 -0.59,0.35 -0.24,0.03 -0.48,-0.02 -0.67,-0.17 -0.19,-0.14 -0.32,-0.35 -0.36,-0.59 -0.04,-0.24 0.02,-0.47 0.17,-0.67 z"
                 id="path185"
                 style="fill:url(#New_Gradient_Swatch_5-10)" />
              <path
                 class="cls-2"
                 d="m 103.09,145.69 c 0.2,0.15 0.43,0.26 0.66,0.33 l 0.27,20.03 c -0.44,0.13 -0.84,0.39 -1.14,0.78 v 0 c -0.73,0.97 -0.52,2.35 0.46,3.07 0.4,0.29 0.86,0.43 1.32,0.43 0.68,0 1.35,-0.31 1.79,-0.89 0.73,-0.97 0.52,-2.35 -0.46,-3.07 -0.2,-0.15 -0.43,-0.25 -0.66,-0.32 l -0.27,-20.04 c 0.44,-0.13 0.84,-0.39 1.14,-0.78 0.73,-0.97 0.52,-2.35 -0.46,-3.07 -0.98,-0.72 -2.38,-0.52 -3.11,0.46 v 0 c -0.73,0.97 -0.52,2.35 0.46,3.07 z m 2.3,22.98 c -0.14,0.19 -0.36,0.32 -0.6,0.35 -0.24,0.03 -0.48,-0.02 -0.67,-0.17 -0.4,-0.29 -0.49,-0.86 -0.19,-1.25 0.3,-0.4 0.87,-0.48 1.27,-0.19 0.19,0.14 0.32,0.35 0.36,0.59 0.04,0.24 -0.02,0.47 -0.17,0.67 z m -1.71,-25.28 c 0.3,-0.4 0.87,-0.48 1.27,-0.19 0.4,0.29 0.49,0.86 0.19,1.26 -0.3,0.4 -0.87,0.48 -1.27,0.19 -0.4,-0.29 -0.49,-0.86 -0.19,-1.26 z"
                 id="path187"
                 style="fill:url(#New_Gradient_Swatch_5-11)" />
              <path
                 class="cls-8"
                 d="m 108.74,145.69 c 0.2,0.15 0.43,0.26 0.66,0.33 l 0.27,20.03 c -0.44,0.13 -0.84,0.39 -1.14,0.78 -0.35,0.47 -0.5,1.05 -0.41,1.63 0.09,0.58 0.4,1.09 0.87,1.44 0.39,0.28 0.84,0.43 1.32,0.43 0.11,0 0.22,0 0.33,-0.02 0.59,-0.09 1.1,-0.39 1.46,-0.86 0.35,-0.47 0.5,-1.05 0.41,-1.63 -0.09,-0.58 -0.4,-1.09 -0.87,-1.44 -0.2,-0.15 -0.43,-0.25 -0.66,-0.32 l -0.27,-20.04 c 0.44,-0.13 0.84,-0.39 1.14,-0.78 0.73,-0.97 0.52,-2.35 -0.46,-3.07 -0.98,-0.72 -2.38,-0.52 -3.1,0.46 -0.35,0.47 -0.5,1.05 -0.41,1.63 0.09,0.58 0.4,1.09 0.87,1.44 z m 2.3,22.98 c -0.14,0.19 -0.36,0.32 -0.6,0.35 -0.24,0.03 -0.48,-0.02 -0.67,-0.17 -0.2,-0.14 -0.32,-0.35 -0.36,-0.59 -0.04,-0.24 0.02,-0.47 0.17,-0.67 0.15,-0.2 0.36,-0.32 0.6,-0.35 0.05,0 0.09,0 0.14,0 0.19,0 0.38,0.06 0.54,0.18 0.2,0.14 0.32,0.35 0.36,0.59 0.04,0.24 -0.02,0.47 -0.17,0.67 z m -1.71,-25.28 c 0.18,-0.24 0.45,-0.36 0.73,-0.36 0.19,0 0.38,0.06 0.54,0.18 0.4,0.29 0.49,0.86 0.19,1.26 -0.14,0.19 -0.36,0.32 -0.6,0.35 -0.24,0.04 -0.48,-0.02 -0.67,-0.17 -0.2,-0.14 -0.32,-0.35 -0.36,-0.59 -0.04,-0.24 0.02,-0.47 0.17,-0.67 z"
                 id="path189"
                 style="fill:url(#New_Gradient_Swatch_5-12)" />
              <path
                 class="cls-9"
                 d="m 103.09,115.92 c 0.2,0.15 0.43,0.26 0.66,0.33 l 0.27,20.03 c -0.44,0.13 -0.84,0.39 -1.14,0.78 -0.73,0.97 -0.52,2.35 0.46,3.07 0.4,0.29 0.86,0.43 1.32,0.43 0.68,0 1.35,-0.31 1.79,-0.89 0.73,-0.97 0.52,-2.35 -0.46,-3.07 -0.2,-0.15 -0.43,-0.25 -0.66,-0.32 l -0.27,-20.04 c 0.44,-0.13 0.84,-0.39 1.14,-0.78 0.73,-0.97 0.52,-2.35 -0.46,-3.07 -0.98,-0.72 -2.38,-0.52 -3.11,0.46 v 0 c -0.73,0.97 -0.52,2.35 0.46,3.07 z m 2.3,22.98 c -0.14,0.19 -0.36,0.32 -0.6,0.35 -0.24,0.03 -0.48,-0.02 -0.67,-0.17 -0.19,-0.14 -0.32,-0.35 -0.36,-0.59 -0.04,-0.24 0.02,-0.47 0.17,-0.67 0.14,-0.19 0.36,-0.32 0.6,-0.35 0.24,-0.03 0.48,0.02 0.67,0.17 0.19,0.14 0.32,0.35 0.36,0.59 0.04,0.24 -0.02,0.47 -0.17,0.67 z m -1.71,-25.28 c 0.3,-0.4 0.87,-0.48 1.27,-0.19 0.19,0.14 0.32,0.35 0.36,0.59 0.04,0.24 -0.02,0.47 -0.17,0.67 -0.3,0.4 -0.87,0.48 -1.27,0.19 -0.4,-0.29 -0.49,-0.86 -0.19,-1.26 z"
                 id="path191"
                 style="fill:url(#New_Gradient_Swatch_5-13)" />
              <path
                 class="cls-3"
                 d="m 108.74,115.92 c 0.2,0.15 0.42,0.25 0.66,0.33 l 0.27,20.06 c -0.45,0.14 -0.85,0.37 -1.14,0.75 -0.35,0.47 -0.5,1.05 -0.41,1.63 0.09,0.58 0.4,1.09 0.87,1.44 0.39,0.28 0.84,0.43 1.32,0.43 0.11,0 0.22,0 0.33,-0.02 0.59,-0.09 1.1,-0.39 1.46,-0.86 0.35,-0.47 0.5,-1.05 0.41,-1.63 -0.09,-0.58 -0.4,-1.09 -0.87,-1.44 -0.2,-0.15 -0.42,-0.25 -0.66,-0.32 l -0.27,-20.07 c 0.45,-0.14 0.85,-0.37 1.14,-0.75 0.73,-0.97 0.52,-2.35 -0.46,-3.07 -0.98,-0.72 -2.38,-0.52 -3.1,0.46 -0.72,0.98 -0.52,2.35 0.46,3.07 z m 2.3,22.98 c -0.14,0.19 -0.36,0.32 -0.6,0.35 -0.24,0.03 -0.48,-0.02 -0.67,-0.17 -0.2,-0.14 -0.32,-0.35 -0.36,-0.59 -0.04,-0.24 0.02,-0.47 0.17,-0.67 v 0 c 0.14,-0.19 0.36,-0.32 0.6,-0.35 0.04,0 0.09,0 0.13,0 0.19,0 0.38,0.06 0.54,0.18 0.2,0.14 0.32,0.35 0.36,0.59 0.04,0.24 -0.02,0.47 -0.17,0.67 z m -1.71,-25.28 c 0.18,-0.24 0.45,-0.36 0.73,-0.36 0.19,0 0.38,0.06 0.54,0.18 0.19,0.14 0.32,0.35 0.36,0.59 0.04,0.24 -0.02,0.47 -0.17,0.67 -0.14,0.19 -0.36,0.32 -0.6,0.35 -0.24,0.04 -0.48,-0.02 -0.67,-0.17 -0.19,-0.14 -0.32,-0.35 -0.36,-0.59 -0.04,-0.24 0.02,-0.47 0.17,-0.67 z"
                 id="path193"
                 style="fill:url(#New_Gradient_Swatch_5-14)" />
              <path
                 class="cls-4"
                 d="m 99.42,175.29 64.26,0.09 v -1.3 c 0,0 -64.26,-0.09 -64.26,-0.09 -1.5,0 -2.98,0.49 -4.24,1.45 l -12.31,12.67 0.95,0.9 12.23,-12.61 c 0.97,-0.72 2.16,-1.12 3.37,-1.12 z"
                 id="path195"
                 style="fill:url(#New_Gradient_Swatch_5-15)" />
              <path
                 class="cls-5"
                 d="m 102.14,179.36 64.26,0.09 v -1.3 c 0,0 -64.26,-0.09 -64.26,-0.09 -1.49,0 -2.97,0.49 -4.24,1.45 l -10.41,10.72 0.95,0.9 10.33,-10.65 c 0.97,-0.72 2.16,-1.12 3.37,-1.12 z"
                 id="path197"
                 style="fill:url(#New_Gradient_Swatch_5-16)" />
              <path
                 class="cls-7"
                 d="m 104.68,183.64 64.26,0.09 v -1.3 c 0,0 -64.26,-0.09 -64.26,-0.09 -1.5,0 -2.98,0.49 -4.24,1.45 l -7.91,8.15 0.95,0.9 7.83,-8.08 c 0.97,-0.72 2.16,-1.12 3.37,-1.12 z"
                 id="path199"
                 style="fill:url(#New_Gradient_Swatch_5-17)" />
              <path
                 class="cls-10"
                 d="m 103.23,188.23 -5.55,5.71 0.95,0.9 5.47,-5.64 c 0.97,-0.72 2.16,-1.12 3.37,-1.12 l 64.26,0.09 v -1.3 c 0,0 -64.26,-0.09 -64.26,-0.09 -1.5,0 -2.98,0.49 -4.24,1.45 z"
                 id="path201"
                 style="fill:url(#New_Gradient_Swatch_5-18)" />
              <path
                 class="cls-11"
                 d="m 79.9,182.93 c -0.21,-0.15 -0.43,-0.25 -0.67,-0.32 v -32.25 c 0,-0.83 -0.28,-1.66 -0.78,-2.33 l -1.49,-2 c -0.34,-0.46 -0.52,-0.99 -0.52,-1.56 v -9.82 c 0,-0.56 0.18,-1.11 0.52,-1.56 l 1.49,-2 c 0.51,-0.68 0.78,-1.48 0.78,-2.33 v -5.52 c 0.45,-0.14 0.84,-0.4 1.13,-0.78 0.35,-0.47 0.5,-1.05 0.41,-1.63 -0.09,-0.58 -0.4,-1.09 -0.87,-1.44 -0.48,-0.35 -1.06,-0.49 -1.65,-0.41 -0.59,0.09 -1.1,0.39 -1.46,0.86 v 0 c -0.35,0.47 -0.5,1.05 -0.41,1.63 0.09,0.58 0.4,1.09 0.87,1.44 0.2,0.15 0.43,0.26 0.67,0.33 v 5.52 c 0,0.56 -0.18,1.1 -0.52,1.56 l -1.49,2 c -0.5,0.67 -0.78,1.5 -0.78,2.33 v 9.82 c 0,0.84 0.27,1.65 0.78,2.33 l 1.49,2 c 0.33,0.45 0.52,1 0.52,1.56 v 32.25 c -0.44,0.13 -0.84,0.39 -1.13,0.78 v 0 c -0.73,0.97 -0.52,2.35 0.46,3.07 0.4,0.29 0.86,0.43 1.32,0.43 0.68,0 1.35,-0.31 1.79,-0.89 0.73,-0.97 0.52,-2.35 -0.46,-3.07 z m -2.05,-62.31 v 0 c 0.14,-0.19 0.36,-0.32 0.6,-0.35 0.04,0 0.09,0 0.13,0 0.19,0 0.38,0.06 0.54,0.18 0.2,0.14 0.32,0.35 0.36,0.59 0.04,0.24 -0.02,0.47 -0.17,0.67 -0.14,0.19 -0.36,0.32 -0.59,0.35 -0.24,0.04 -0.48,-0.02 -0.67,-0.17 -0.19,-0.14 -0.32,-0.35 -0.36,-0.59 -0.04,-0.24 0.02,-0.47 0.17,-0.67 z m 1.46,64.61 c -0.14,0.19 -0.36,0.32 -0.6,0.35 -0.24,0.04 -0.48,-0.02 -0.67,-0.17 -0.4,-0.29 -0.49,-0.86 -0.19,-1.26 0.14,-0.19 0.36,-0.32 0.59,-0.35 0.24,-0.04 0.48,0.02 0.67,0.17 0.19,0.14 0.32,0.35 0.36,0.59 0.04,0.24 -0.02,0.47 -0.17,0.67 z"
                 id="path203"
                 style="fill:url(#New_Gradient_Swatch_5-19)" />
              <path
                 class="cls-44"
                 d="m 84.61,181.55 c 0.73,-0.97 0.52,-2.35 -0.46,-3.07 -0.21,-0.15 -0.43,-0.25 -0.67,-0.32 v -27.81 c 0,-0.83 -0.28,-1.66 -0.77,-2.33 l -1.5,-2 c -0.34,-0.45 -0.52,-0.99 -0.52,-1.56 v -9.82 c 0,-0.56 0.18,-1.11 0.52,-1.56 l 1.5,-2 c 0.51,-0.68 0.77,-1.48 0.77,-2.33 v -1.56 c 0.43,-0.13 0.84,-0.39 1.13,-0.78 0.73,-0.97 0.52,-2.35 -0.46,-3.07 -0.98,-0.72 -2.38,-0.52 -3.11,0.46 v 0 c -0.73,0.97 -0.52,2.35 0.46,3.07 0.21,0.15 0.43,0.26 0.67,0.33 v 1.55 c 0,0.57 -0.18,1.1 -0.52,1.56 l -1.5,2 c -0.5,0.67 -0.77,1.5 -0.77,2.33 v 9.82 c 0,0.84 0.27,1.65 0.77,2.33 l 1.5,2 c 0.33,0.45 0.52,1 0.52,1.56 v 27.8 c -0.44,0.13 -0.84,0.39 -1.13,0.78 v 0 c -0.73,0.97 -0.52,2.35 0.46,3.07 0.4,0.29 0.86,0.43 1.32,0.43 0.68,0 1.35,-0.31 1.79,-0.89 z M 82.1,124.59 c 0.3,-0.4 0.87,-0.48 1.27,-0.19 0.4,0.29 0.49,0.86 0.19,1.26 -0.14,0.19 -0.36,0.32 -0.6,0.35 -0.24,0.04 -0.48,-0.02 -0.67,-0.17 -0.4,-0.29 -0.49,-0.86 -0.19,-1.26 z m 1.46,56.19 c -0.14,0.19 -0.36,0.32 -0.6,0.35 -0.24,0.04 -0.48,-0.02 -0.67,-0.17 -0.4,-0.29 -0.49,-0.86 -0.19,-1.25 0.3,-0.4 0.87,-0.48 1.27,-0.19 0.4,0.29 0.49,0.86 0.19,1.26 z"
                 id="path205"
                 style="fill:url(#New_Gradient_Swatch_5-20)" />
              <path
                 class="cls-45"
                 d="m 85.75,122.92 c 0.21,0.15 0.43,0.26 0.67,0.33 v 5.52 c 0,0.56 -0.18,1.1 -0.52,1.56 l -1.49,2 c -0.5,0.67 -0.78,1.5 -0.78,2.33 v 9.82 c 0,0.84 0.27,1.65 0.78,2.33 l 1.49,2 c 0.33,0.45 0.52,1 0.52,1.56 v 23.64 c -0.44,0.14 -0.85,0.37 -1.13,0.75 v 0 c -0.73,0.97 -0.52,2.35 0.46,3.07 0.4,0.29 0.86,0.43 1.32,0.43 0.68,0 1.35,-0.31 1.79,-0.89 0.73,-0.97 0.52,-2.35 -0.46,-3.07 -0.2,-0.15 -0.43,-0.25 -0.67,-0.33 v -23.61 c 0,-0.83 -0.28,-1.66 -0.78,-2.33 l -1.49,-2 c -0.34,-0.46 -0.52,-0.99 -0.52,-1.56 v -9.82 c 0,-0.56 0.18,-1.11 0.52,-1.56 l 1.49,-2 c 0.51,-0.68 0.78,-1.48 0.78,-2.33 v -5.53 c 0.44,-0.13 0.84,-0.39 1.13,-0.78 0.73,-0.97 0.52,-2.35 -0.46,-3.07 -0.48,-0.35 -1.06,-0.49 -1.65,-0.41 -0.59,0.09 -1.1,0.39 -1.46,0.86 v 0 c -0.73,0.97 -0.52,2.35 0.46,3.07 z m 2.05,53.67 c -0.3,0.4 -0.87,0.48 -1.27,0.19 -0.19,-0.14 -0.32,-0.35 -0.36,-0.59 -0.04,-0.24 0.02,-0.47 0.17,-0.67 v 0 c 0.14,-0.19 0.36,-0.32 0.6,-0.35 0.04,0 0.09,0 0.13,0 0.19,0 0.38,0.06 0.54,0.18 0.4,0.29 0.49,0.86 0.19,1.25 z m -1.46,-55.97 v 0 c 0.14,-0.19 0.36,-0.32 0.6,-0.35 0.04,0 0.09,0 0.13,0 0.19,0 0.38,0.06 0.54,0.18 0.19,0.14 0.32,0.35 0.36,0.59 0.04,0.24 -0.02,0.47 -0.17,0.67 -0.3,0.4 -0.87,0.48 -1.27,0.19 -0.19,-0.14 -0.32,-0.35 -0.36,-0.59 -0.04,-0.24 0.02,-0.47 0.17,-0.67 z"
                 id="path207"
                 style="fill:url(#New_Gradient_Swatch_5-21)" />
              <path
                 class="cls-46"
                 d="m 89.99,126.89 c 0.21,0.15 0.43,0.26 0.67,0.33 v 1.55 c 0,0.57 -0.18,1.1 -0.52,1.56 l -1.49,2 c -0.5,0.67 -0.78,1.5 -0.78,2.33 v 9.82 c 0,0.84 0.27,1.65 0.78,2.33 l 1.49,2 c 0.33,0.45 0.52,1 0.52,1.56 v 19.37 c -0.44,0.13 -0.84,0.39 -1.13,0.78 -0.73,0.97 -0.52,2.35 0.46,3.07 0.4,0.29 0.86,0.43 1.32,0.43 0.68,0 1.35,-0.31 1.79,-0.89 0.35,-0.47 0.5,-1.05 0.41,-1.63 -0.09,-0.58 -0.4,-1.09 -0.87,-1.44 -0.21,-0.15 -0.43,-0.25 -0.67,-0.32 v -19.37 c 0,-0.83 -0.28,-1.66 -0.77,-2.33 l -1.49,-2 c -0.34,-0.46 -0.52,-0.99 -0.52,-1.56 v -9.82 c 0,-0.56 0.18,-1.11 0.52,-1.56 l 1.49,-2 c 0.51,-0.68 0.77,-1.48 0.77,-2.33 v -1.56 c 0.44,-0.13 0.84,-0.39 1.13,-0.78 0.35,-0.47 0.5,-1.05 0.41,-1.63 -0.09,-0.58 -0.4,-1.09 -0.87,-1.44 -0.98,-0.72 -2.38,-0.52 -3.1,0.46 -0.73,0.97 -0.52,2.35 0.46,3.07 z m 2.05,45.45 c -0.14,0.19 -0.36,0.32 -0.6,0.35 -0.24,0.04 -0.48,-0.02 -0.67,-0.17 -0.19,-0.14 -0.32,-0.35 -0.36,-0.59 -0.04,-0.24 0.02,-0.47 0.17,-0.67 0.15,-0.2 0.36,-0.32 0.6,-0.35 0.05,0 0.09,0 0.14,0 0.19,0 0.38,0.06 0.54,0.18 0.2,0.14 0.32,0.35 0.36,0.59 0.04,0.24 -0.02,0.47 -0.17,0.67 z m -1.46,-47.75 c 0.14,-0.19 0.36,-0.32 0.6,-0.35 0.05,0 0.09,0 0.14,0 0.19,0 0.38,0.06 0.54,0.18 0.2,0.14 0.32,0.35 0.36,0.59 0.04,0.24 -0.02,0.47 -0.17,0.67 -0.14,0.19 -0.36,0.32 -0.6,0.35 -0.24,0.04 -0.48,-0.02 -0.67,-0.17 -0.19,-0.14 -0.32,-0.35 -0.36,-0.59 -0.04,-0.24 0.02,-0.47 0.17,-0.67 z"
                 id="path209"
                 style="fill:url(#New_Gradient_Swatch_5-22)" />
              <path
                 class="cls-50"
                 d="m 118.11,139.6 13.39,6.97 c 0.93,0.49 1.51,1.43 1.51,2.47 v 15.46 c -0.44,0.13 -0.84,0.39 -1.13,0.78 -0.73,0.97 -0.52,2.35 0.46,3.07 0.4,0.29 0.86,0.43 1.32,0.43 0.68,0 1.35,-0.31 1.79,-0.89 0.73,-0.97 0.52,-2.35 -0.46,-3.07 -0.21,-0.15 -0.43,-0.25 -0.67,-0.32 v -15.47 c 0,-1.52 -0.85,-2.91 -2.21,-3.62 l -13.39,-6.97 c -0.93,-0.49 -1.51,-1.43 -1.51,-2.47 V 115.7 h -1.31 v 20.27 c 0,1.52 0.85,2.91 2.21,3.62 z m 16.28,27.53 c -0.3,0.4 -0.87,0.48 -1.27,0.19 -0.19,-0.14 -0.32,-0.35 -0.36,-0.59 -0.04,-0.24 0.02,-0.47 0.17,-0.67 0.14,-0.19 0.36,-0.32 0.6,-0.35 0.24,-0.03 0.48,0.02 0.67,0.17 0.19,0.14 0.32,0.35 0.36,0.59 0.04,0.24 -0.02,0.47 -0.17,0.67 z"
                 id="path211"
                 style="fill:url(#New_Gradient_Swatch_5-23)" />
              <path
                 class="cls-54"
                 d="m 121.68,137.55 13.39,6.97 c 0.93,0.49 1.51,1.43 1.51,2.47 v 12.65 c -0.44,0.13 -0.84,0.39 -1.13,0.78 -0.73,0.97 -0.52,2.35 0.46,3.07 0.4,0.29 0.86,0.43 1.32,0.43 0.68,0 1.35,-0.31 1.79,-0.89 0.35,-0.47 0.5,-1.05 0.41,-1.63 -0.09,-0.58 -0.4,-1.09 -0.87,-1.44 -0.21,-0.15 -0.43,-0.25 -0.67,-0.32 v -12.65 c 0,-1.52 -0.85,-2.91 -2.21,-3.62 l -13.39,-6.97 c -0.93,-0.49 -1.51,-1.43 -1.51,-2.47 v -20.27 h -1.31 v 20.27 c 0,1.52 0.85,2.91 2.21,3.62 z m 16.28,24.72 c -0.14,0.19 -0.36,0.32 -0.6,0.35 -0.24,0.04 -0.48,-0.02 -0.67,-0.17 -0.19,-0.14 -0.32,-0.35 -0.36,-0.59 -0.04,-0.24 0.02,-0.47 0.17,-0.67 0.15,-0.2 0.36,-0.32 0.6,-0.35 0.05,0 0.09,0 0.14,0 0.19,0 0.38,0.06 0.54,0.18 0.2,0.14 0.32,0.35 0.36,0.59 0.04,0.24 -0.02,0.47 -0.17,0.67 z"
                 id="path213"
                 style="fill:url(#New_Gradient_Swatch_5-24)" />
              <path
                 class="cls-51"
                 d="m 125.25,135.58 13.38,6.97 c 0.93,0.49 1.51,1.43 1.51,2.47 v 9.78 c -0.44,0.13 -0.84,0.39 -1.13,0.78 v 0 c -0.73,0.97 -0.52,2.35 0.46,3.07 0.4,0.29 0.86,0.43 1.32,0.43 0.68,0 1.35,-0.31 1.79,-0.89 0.73,-0.97 0.52,-2.35 -0.46,-3.07 -0.21,-0.15 -0.43,-0.25 -0.67,-0.32 v -9.79 c 0,-1.52 -0.85,-2.91 -2.21,-3.62 l -13.38,-6.97 c -0.93,-0.49 -1.51,-1.43 -1.51,-2.47 v -20.27 h -1.31 v 20.27 c 0,1.52 0.85,2.91 2.21,3.62 z m 16.28,21.85 c -0.3,0.4 -0.87,0.48 -1.27,0.19 -0.4,-0.29 -0.49,-0.86 -0.19,-1.26 0.3,-0.4 0.87,-0.48 1.27,-0.19 0.19,0.14 0.32,0.35 0.36,0.59 0.04,0.24 -0.02,0.47 -0.17,0.67 z"
                 id="path215"
                 style="fill:url(#New_Gradient_Swatch_5-25)" />
              <path
                 class="cls-53"
                 d="m 128.82,133.61 13.39,6.97 c 0.93,0.49 1.51,1.43 1.51,2.47 v 7.15 c -0.44,0.13 -0.83,0.39 -1.13,0.78 -0.35,0.47 -0.5,1.05 -0.41,1.63 0.09,0.58 0.4,1.09 0.87,1.44 0.4,0.29 0.86,0.43 1.32,0.43 0.68,0 1.35,-0.31 1.79,-0.89 0.73,-0.97 0.52,-2.35 -0.46,-3.07 -0.21,-0.15 -0.43,-0.25 -0.67,-0.32 v -7.15 c 0,-1.52 -0.85,-2.91 -2.21,-3.62 l -13.39,-6.97 c -0.93,-0.49 -1.51,-1.43 -1.51,-2.47 v -20.27 h -1.31 v 20.27 c 0,1.52 0.85,2.91 2.21,3.62 z m 16.28,19.22 c -0.14,0.19 -0.36,0.32 -0.6,0.35 -0.24,0.04 -0.48,-0.02 -0.67,-0.17 -0.2,-0.14 -0.32,-0.35 -0.36,-0.59 -0.04,-0.24 0.02,-0.47 0.17,-0.67 0.18,-0.24 0.45,-0.36 0.73,-0.36 0.19,0 0.38,0.06 0.54,0.18 0.4,0.29 0.49,0.86 0.19,1.26 z"
                 id="path217"
                 style="fill:url(#New_Gradient_Swatch_5-26)" />
              <path
                 class="cls-52"
                 d="m 146.32,161.39 c -0.97,-0.74 -2.37,-0.56 -3.11,0.4 -0.36,0.46 -0.52,1.04 -0.44,1.62 0.08,0.58 0.38,1.1 0.85,1.45 0.4,0.31 0.88,0.45 1.35,0.45 0.67,0 1.33,-0.29 1.76,-0.86 0.15,-0.2 0.26,-0.42 0.33,-0.64 l 8.18,0.07 c 0.13,0.44 0.38,0.84 0.77,1.14 0.4,0.31 0.88,0.45 1.35,0.45 0.67,0 1.33,-0.29 1.76,-0.86 0.75,-0.96 0.56,-2.34 -0.41,-3.08 -0.97,-0.74 -2.37,-0.56 -3.11,0.4 -0.15,0.2 -0.26,0.42 -0.33,0.64 l -8.18,-0.07 c -0.13,-0.44 -0.38,-0.84 -0.77,-1.14 z m -0.63,2.29 c -0.3,0.39 -0.88,0.47 -1.27,0.16 -0.19,-0.15 -0.32,-0.36 -0.35,-0.59 -0.03,-0.24 0.03,-0.47 0.18,-0.66 0.18,-0.23 0.45,-0.35 0.72,-0.35 0.19,0 0.39,0.06 0.55,0.19 0.4,0.3 0.47,0.87 0.17,1.26 z m 10.96,-0.92 c 0.18,-0.23 0.45,-0.35 0.72,-0.35 0.19,0 0.39,0.06 0.55,0.19 0.19,0.15 0.32,0.36 0.35,0.59 0.03,0.24 -0.03,0.47 -0.18,0.66 -0.31,0.39 -0.88,0.47 -1.27,0.17 -0.4,-0.3 -0.47,-0.87 -0.17,-1.26 z"
                 id="path219"
                 style="fill:url(#New_Gradient_Swatch_5-27)" />
              <path
                 class="cls-55"
                 d="m 139.56,165.38 c -0.75,0.96 -0.56,2.34 0.41,3.08 0.4,0.31 0.88,0.45 1.35,0.45 0.67,0 1.33,-0.29 1.76,-0.86 0.15,-0.2 0.26,-0.42 0.34,-0.64 l 15.34,0.08 c 0.13,0.44 0.38,0.84 0.77,1.14 0.4,0.31 0.88,0.45 1.35,0.45 0.67,0 1.33,-0.29 1.76,-0.86 0.75,-0.96 0.56,-2.34 -0.41,-3.08 -0.97,-0.74 -2.37,-0.56 -3.11,0.4 -0.15,0.2 -0.26,0.42 -0.34,0.64 l -15.34,-0.08 c -0.13,-0.44 -0.38,-0.84 -0.77,-1.14 -0.97,-0.74 -2.37,-0.56 -3.11,0.4 z m 2.48,1.88 c -0.3,0.39 -0.88,0.47 -1.27,0.16 -0.4,-0.3 -0.47,-0.87 -0.17,-1.26 0.18,-0.23 0.45,-0.35 0.72,-0.35 0.19,0 0.39,0.06 0.55,0.19 0.4,0.3 0.47,0.87 0.17,1.26 z m 18.12,-0.92 c 0.18,-0.23 0.45,-0.35 0.72,-0.35 0.19,0 0.39,0.06 0.55,0.19 0.4,0.3 0.47,0.87 0.17,1.26 -0.3,0.39 -0.88,0.47 -1.27,0.16 -0.4,-0.3 -0.47,-0.86 -0.17,-1.26 z"
                 id="path221"
                 style="fill:url(#New_Gradient_Swatch_5-28)" />
              <path
                 class="cls-56"
                 d="m 137.23,109.72 c 1.22,0 2.22,-0.98 2.22,-2.19 0,-1.21 -1,-2.19 -2.22,-2.19 -1.22,0 -2.22,0.98 -2.22,2.19 0,1.21 1,2.19 2.22,2.19 z m 0,-3.09 c 0.5,0 0.91,0.4 0.91,0.9 0,0.5 -0.41,0.9 -0.91,0.9 -0.5,0 -0.91,-0.4 -0.91,-0.9 0,-0.5 0.41,-0.9 0.91,-0.9 z"
                 id="path223"
                 style="fill:url(#New_Gradient_Swatch_5-29)" />
              <path
                 class="cls-34"
                 d="m 136.28,124.89 c 0.99,0 1.83,-0.65 2.11,-1.55 h 20.48 c 1.1,0 2,0.89 2,1.98 v 33.02 c -0.87,0.3 -1.51,1.11 -1.51,2.07 0,1.21 1,2.19 2.22,2.19 1.22,0 2.22,-0.98 2.22,-2.19 0,-1 -0.69,-1.84 -1.62,-2.1 v -32.98 c 0,-1.81 -1.49,-3.28 -3.31,-3.28 h -20.48 c -0.28,-0.89 -1.12,-1.55 -2.11,-1.55 -1.22,0 -2.22,0.98 -2.22,2.19 0,1.21 1,2.19 2.22,2.19 z m 26.21,35.52 c 0,0.5 -0.41,0.9 -0.91,0.9 -0.5,0 -0.91,-0.4 -0.91,-0.9 0,-0.5 0.41,-0.9 0.91,-0.9 0.5,0 0.91,0.4 0.91,0.9 z M 136.28,121.8 c 0.5,0 0.91,0.4 0.91,0.9 0,0.5 -0.41,0.9 -0.91,0.9 -0.5,0 -0.91,-0.4 -0.91,-0.9 0,-0.5 0.41,-0.9 0.91,-0.9 z"
                 id="path225"
                 style="fill:url(#New_Gradient_Swatch_5-30)" />
              <path
                 class="cls-33"
                 d="m 136.28,129.96 c 0.99,0 1.83,-0.65 2.11,-1.55 h 16.27 c 0.58,0 1.05,0.46 1.05,1.03 v 26.21 c -0.9,0.28 -1.56,1.1 -1.56,2.08 0,1.21 1,2.19 2.22,2.19 1.22,0 2.22,-0.98 2.22,-2.19 0,-0.98 -0.66,-1.81 -1.56,-2.08 v -26.21 c 0,-1.29 -1.06,-2.33 -2.36,-2.33 H 138.4 c -0.28,-0.89 -1.12,-1.55 -2.11,-1.55 -1.22,0 -2.22,0.98 -2.22,2.19 0,1.21 1,2.19 2.22,2.19 z m 20.08,28.68 c -0.5,0 -0.91,-0.4 -0.91,-0.9 0,-0.5 0.41,-0.9 0.91,-0.9 0.5,0 0.91,0.4 0.91,0.9 0,0.5 -0.41,0.9 -0.91,0.9 z m -20.08,-31.77 c 0.5,0 0.91,0.4 0.91,0.9 0,0.5 -0.41,0.9 -0.91,0.9 -0.5,0 -0.91,-0.4 -0.91,-0.9 0,-0.5 0.41,-0.9 0.91,-0.9 z"
                 id="path227"
                 style="fill:url(#New_Gradient_Swatch_5-31)" />
              <path
                 class="cls-32"
                 d="m 168.16,162.65 v -39.43 c 0.67,-0.38 1.13,-1.08 1.13,-1.9 0,-1.21 -1,-2.19 -2.22,-2.19 -1.22,0 -2.22,0.98 -2.22,2.19 0,0.81 0.46,1.52 1.13,1.9 v 39.43 c 0,2.34 1.93,4.25 4.29,4.25 h 5.13 v -2.16 h -5.13 c -1.16,0 -2.11,-0.93 -2.11,-2.08 z m -1.09,-42.23 c 0.5,0 0.91,0.4 0.91,0.9 0,0.5 -0.41,0.9 -0.91,0.9 -0.5,0 -0.91,-0.4 -0.91,-0.9 0,-0.5 0.41,-0.9 0.91,-0.9 z"
                 id="path229"
                 style="fill:url(#New_Gradient_Swatch_5-32)" />
              <path
                 class="cls-48"
                 d="m 171.93,163.05 c 1.22,0 2.22,-0.98 2.22,-2.19 0,-0.81 -0.46,-1.52 -1.13,-1.9 v -42.88 h -2.19 v 42.88 c -0.67,0.38 -1.13,1.08 -1.13,1.9 0,1.21 1,2.19 2.22,2.19 z m 0,-1.3 c -0.5,0 -0.91,-0.4 -0.91,-0.9 0,-0.5 0.41,-0.9 0.91,-0.9 0.5,0 0.91,0.4 0.91,0.9 0,0.5 -0.41,0.9 -0.91,0.9 z"
                 id="path231"
                 style="fill:url(#New_Gradient_Swatch_5-33)" />
              <path
                 class="cls-43"
                 d="m 189.43,126.34 v -9.8 h -1.31 v 9.8 c 0,1.37 0.46,2.72 1.29,3.81 l 3.26,4.27 1.05,-0.78 -3.26,-4.27 c -0.66,-0.87 -1.03,-1.94 -1.03,-3.03 z"
                 id="path233"
                 style="fill:url(#New_Gradient_Swatch_5-34)" />
              <path
                 class="cls-42"
                 d="m 195.12,127.32 c -0.66,-0.86 -1.03,-1.94 -1.03,-3.03 v -7.76 h -1.31 v 7.76 c 0,1.37 0.46,2.72 1.29,3.81 l 1.55,2.02 1.05,-0.78 z"
                 id="path235"
                 style="fill:url(#New_Gradient_Swatch_5-35)" />
              <ellipse
                 class="cls-47"
                 cx="151.47"
                 cy="132.03"
                 rx="1.5599999"
                 ry="1.55"
                 id="ellipse237"
                 style="fill:url(#New_Gradient_Swatch_5-36)" />
              <ellipse
                 class="cls-49"
                 cx="151.47"
                 cy="137.21001"
                 rx="1.5599999"
                 ry="1.55"
                 id="ellipse239"
                 style="fill:url(#New_Gradient_Swatch_5-37)" />
              <ellipse
                 class="cls-41"
                 cx="151.64"
                 cy="142.39"
                 rx="1.5599999"
                 ry="1.55"
                 id="ellipse241"
                 style="fill:url(#New_Gradient_Swatch_5-38)" />
              <ellipse
                 class="cls-40"
                 cx="151.61"
                 cy="147.50999"
                 rx="1.5599999"
                 ry="1.55"
                 id="ellipse243"
                 style="fill:url(#New_Gradient_Swatch_5-39)" />
              <ellipse
                 class="cls-31"
                 cx="178.91"
                 cy="121.85"
                 rx="1.5599999"
                 ry="1.55"
                 id="ellipse245"
                 style="fill:url(#New_Gradient_Swatch_5-40)" />
              <path
                 class="cls-27"
                 d="m 178.91,125.39 c -0.86,0 -1.56,0.69 -1.56,1.55 0,0.86 0.7,1.55 1.56,1.55 0.86,0 1.56,-0.69 1.56,-1.55 0,-0.86 -0.7,-1.55 -1.56,-1.55 z"
                 id="path247"
                 style="fill:url(#New_Gradient_Swatch_5-41)" />
              <ellipse
                 class="cls-30"
                 cx="178.91"
                 cy="132.00999"
                 rx="1.5599999"
                 ry="1.55"
                 id="ellipse249"
                 style="fill:url(#New_Gradient_Swatch_5-42)" />
              <ellipse
                 class="cls-36"
                 cx="178.91"
                 cy="137.09"
                 rx="1.5599999"
                 ry="1.55"
                 id="ellipse251"
                 style="fill:url(#New_Gradient_Swatch_5-43)" />
              <ellipse
                 class="cls-38"
                 cx="178.91"
                 cy="142.17"
                 rx="1.5599999"
                 ry="1.55"
                 id="ellipse253"
                 style="fill:url(#New_Gradient_Swatch_5-44)" />
              <ellipse
                 class="cls-35"
                 cx="178.91"
                 cy="147.25"
                 rx="1.5599999"
                 ry="1.55"
                 id="ellipse255"
                 style="fill:url(#New_Gradient_Swatch_5-45)" />
              <ellipse
                 class="cls-29"
                 cx="178.91"
                 cy="152.33"
                 rx="1.5599999"
                 ry="1.55"
                 id="ellipse257"
                 style="fill:url(#New_Gradient_Swatch_5-46)" />
              <path
                 class="cls-39"
                 d="m 178.91,155.87 c -0.86,0 -1.56,0.69 -1.56,1.55 0,0.86 0.7,1.55 1.56,1.55 0.86,0 1.56,-0.69 1.56,-1.55 0,-0.86 -0.7,-1.55 -1.56,-1.55 z"
                 id="path259"
                 style="fill:url(#New_Gradient_Swatch_5-47)" />
              <ellipse
                 class="cls-28"
                 cx="183.72"
                 cy="121.85"
                 rx="1.5599999"
                 ry="1.55"
                 id="ellipse261"
                 style="fill:url(#New_Gradient_Swatch_5-48)" />
              <path
                 class="cls-37"
                 d="m 183.72,125.39 c -0.86,0 -1.56,0.69 -1.56,1.55 0,0.86 0.7,1.55 1.56,1.55 0.86,0 1.56,-0.69 1.56,-1.55 0,-0.86 -0.7,-1.55 -1.56,-1.55 z"
                 id="path263"
                 style="fill:url(#New_Gradient_Swatch_5-49)" />
              <ellipse
                 class="cls-17"
                 cx="183.72"
                 cy="132.00999"
                 rx="1.5599999"
                 ry="1.55"
                 id="ellipse265"
                 style="fill:url(#New_Gradient_Swatch_5-50)" />
              <ellipse
                 class="cls-18"
                 cx="183.72"
                 cy="137.09"
                 rx="1.5599999"
                 ry="1.55"
                 id="ellipse267"
                 style="fill:url(#New_Gradient_Swatch_5-51)" />
              <ellipse
                 class="cls-19"
                 cx="183.72"
                 cy="142.17"
                 rx="1.5599999"
                 ry="1.55"
                 id="ellipse269"
                 style="fill:url(#New_Gradient_Swatch_5-52)" />
              <ellipse
                 class="cls-20"
                 cx="183.72"
                 cy="147.25"
                 rx="1.5599999"
                 ry="1.55"
                 id="ellipse271"
                 style="fill:url(#New_Gradient_Swatch_5-53)" />
              <ellipse
                 class="cls-21"
                 cx="183.72"
                 cy="152.33"
                 rx="1.5599999"
                 ry="1.55"
                 id="ellipse273"
                 style="fill:url(#New_Gradient_Swatch_5-54)" />
              <path
                 class="cls-22"
                 d="m 183.72,155.87 c -0.86,0 -1.56,0.69 -1.56,1.55 0,0.86 0.7,1.55 1.56,1.55 0.86,0 1.56,-0.69 1.56,-1.55 0,-0.86 -0.7,-1.55 -1.56,-1.55 z"
                 id="path275"
                 style="fill:url(#New_Gradient_Swatch_5-55)" />
              <path
                 class="cls-23"
                 d="m 118.38,155.75 c 0.86,0 1.56,-0.69 1.56,-1.55 0,-0.86 -0.7,-1.55 -1.56,-1.55 -0.86,0 -1.56,0.69 -1.56,1.55 0,0.86 0.7,1.55 1.56,1.55 z"
                 id="path277"
                 style="fill:url(#New_Gradient_Swatch_5-56)" />
              <ellipse
                 class="cls-24"
                 cx="118.38"
                 cy="158.08"
                 rx="1.5599999"
                 ry="1.55"
                 id="ellipse279"
                 style="fill:url(#New_Gradient_Swatch_5-57)" />
              <ellipse
                 class="cls-25"
                 cx="118.38"
                 cy="161.96001"
                 rx="1.5599999"
                 ry="1.55"
                 id="ellipse281"
                 style="fill:url(#New_Gradient_Swatch_5-58)" />
              <path
                 class="cls-26"
                 d="m 124.52,155.75 c 0.86,0 1.56,-0.69 1.56,-1.55 0,-0.86 -0.7,-1.55 -1.56,-1.55 -0.86,0 -1.56,0.69 -1.56,1.55 0,0.86 0.7,1.55 1.56,1.55 z"
                 id="path283"
                 style="fill:url(#New_Gradient_Swatch_5-59)" />
              <ellipse
                 class="cls-16"
                 cx="124.52"
                 cy="158.08"
                 rx="1.5599999"
                 ry="1.55"
                 id="ellipse285"
                 style="fill:url(#New_Gradient_Swatch_5-60)" />
              <ellipse
                 class="cls-13"
                 cx="124.52"
                 cy="161.96001"
                 rx="1.5599999"
                 ry="1.55"
                 id="ellipse287"
                 style="fill:url(#New_Gradient_Swatch_5-61)" />
              <path
                 class="cls-12"
                 d="m 124.52,147.11 h -6.14 c -1.22,0 -2.22,0.98 -2.22,2.19 0,1.21 1,2.19 2.22,2.19 1.22,0 2.22,-0.98 2.22,-2.19 0,-0.32 -0.07,-0.62 -0.2,-0.9 h 2.1 c -0.13,0.27 -0.2,0.58 -0.2,0.9 0,1.21 1,2.19 2.22,2.19 1.22,0 2.22,-0.98 2.22,-2.19 0,-1.21 -1,-2.19 -2.22,-2.19 z m -5.23,2.19 c 0,0.49 -0.41,0.9 -0.91,0.9 -0.5,0 -0.91,-0.4 -0.91,-0.9 0,-0.5 0.41,-0.9 0.91,-0.9 0.5,0 0.91,0.4 0.91,0.9 z m 5.23,0.9 c -0.5,0 -0.91,-0.4 -0.91,-0.9 0,-0.5 0.41,-0.9 0.91,-0.9 0.5,0 0.91,0.4 0.91,0.9 0,0.5 -0.41,0.9 -0.91,0.9 z"
                 id="path289"
                 style="fill:url(#New_Gradient_Swatch_5-62)" />
              <path
                 class="cls-14"
                 d="m 44.17,161.15 c -0.98,-0.72 -2.38,-0.52 -3.1,0.46 v 0 c -0.73,0.97 -0.52,2.35 0.46,3.07 0.4,0.29 0.86,0.43 1.32,0.43 0.68,0 1.35,-0.31 1.79,-0.89 0.35,-0.47 0.5,-1.05 0.41,-1.63 -0.09,-0.58 -0.4,-1.09 -0.87,-1.44 z m -0.59,2.3 c -0.14,0.19 -0.36,0.32 -0.6,0.35 -0.24,0.04 -0.48,-0.02 -0.67,-0.17 -0.4,-0.29 -0.49,-0.86 -0.19,-1.26 0.14,-0.19 0.36,-0.32 0.59,-0.35 0.24,-0.03 0.48,0.02 0.67,0.17 0.2,0.14 0.32,0.35 0.36,0.59 0.04,0.24 -0.02,0.47 -0.17,0.67 z"
                 id="path291"
                 style="fill:url(#New_Gradient_Swatch_5-63)" />
              <path
                 class="cls-15"
                 d="m 118.07,168.88 c 0.1,0.01 0.21,0.03 0.31,0.03 0.1,0 0.21,-0.02 0.31,-0.03 h 5.49 c 0.11,0.01 0.22,0.03 0.34,0.03 1.22,0 2.22,-0.98 2.22,-2.19 0,-1.21 -1,-2.19 -2.22,-2.19 -1.22,0 -2.22,0.98 -2.22,2.19 0,0.31 0.07,0.6 0.18,0.87 h -2.07 c 0.12,-0.27 0.18,-0.56 0.18,-0.87 0,-1.21 -1,-2.19 -2.22,-2.19 -1.22,0 -2.22,0.98 -2.22,2.19 0,1.1 0.82,2 1.88,2.16 v 0 c 0,0 0.02,0 0.02,0 z m 6.46,-3.06 c 0.5,0 0.91,0.4 0.91,0.9 0,0.5 -0.41,0.9 -0.91,0.9 -0.5,0 -0.91,-0.4 -0.91,-0.9 0,-0.5 0.41,-0.9 0.91,-0.9 z m -7.05,0.9 c 0,-0.49 0.41,-0.9 0.91,-0.9 0.5,0 0.91,0.4 0.91,0.9 0,0.44 -0.33,0.79 -0.75,0.87 h -0.31 c -0.42,-0.08 -0.75,-0.43 -0.75,-0.87 z"
                 id="path293"
                 style="fill:url(#New_Gradient_Swatch_5-64)" />
            </g>
          </g>
        </g>
      </g>
      <rect
         id="Ground_Shading"
         data-name="Ground Shading"
         class="cls-65"
         x="15.91"
         y="117.61"
         width="184"
         height="39.73"
         style="fill:url(#linearGradient494)" />
      <rect
         id="Top_Ground_Shading"
         data-name="Top Ground Shading"
         class="cls-66"
         x="15.91"
         y="117.61"
         width="184"
         height="6.1399999"
         style="fill:url(#linear-gradient-3)" />
      <g
         id="Mountains">
        <path
           class="cls-62"
           d="m 198.56,99.33 c -0.27,0.02 -0.55,0.08 -0.85,0.12 -1.06,0.15 -2.27,0.45 -3.5,0.52 -2.95,0.18 -5.89,0.58 -8.81,1.03 -6.03,0.93 -12.05,2.11 -18.17,2.15 -4.62,0.03 -9.23,-0.18 -13.83,-0.63 -4.53,-0.45 -6.76,0.46 -11.02,2.12 -0.46,0.18 -0.97,0.27 -1.46,0.27 -7.91,-0.14 -15.83,0.32 -23.74,-0.25 -2.18,-0.16 -4.37,-0.12 -6.56,-0.16 -2.42,-0.04 -4.84,0.02 -7.26,-0.14 -2.48,-0.16 -4.99,-0.32 -7.43,-0.86 -2.53,-0.56 -5.07,-0.93 -7.63,-1.08 -2.6,-0.15 -5.19,0.03 -7.8,-0.48 -2.91,-0.57 -5.89,-0.53 -8.85,-0.16 -1.3,0.16 -2.61,0.19 -3.9,0.36 -1.44,0.19 -2.9,0.36 -4.31,0.73 -1.9,0.5 -3.75,1.3 -5.7,1.6 -0.68,0.11 -1.35,0.39 -2.04,0.42 -2.84,0.15 -5.68,-0.14 -8.51,-0.45 -1.6,-0.18 -3.2,-0.57 -4.8,-0.59 -4.07,-0.04 -8.14,0.08 -12.21,0.12 -1.23,0.01 -2.46,0.03 -3.68,-0.03 -1.38,-0.08 -2.75,-0.31 -4.13,-0.36 -1.7,-0.06 -3.4,-0.09 -5.11,-0.12 0,0.15 0,0.29 0,0.44 0,4.69 0.35,9.3 1.02,13.8 h 179.37 c 0.67,-4.5 1.02,-9.11 1.02,-13.8 0,-1.54 -0.04,-3.06 -0.11,-4.58 z"
           id="path304" />
      </g>
      <path
         d="m 197.62,117.71 c 0,-0.72 0,-1.44 0,-2.17 0,-0.29 0.03,-0.53 -0.39,-0.62 -0.26,-0.05 -0.52,-0.25 -0.7,-0.46 -0.48,-0.54 -1.06,-0.44 -1.62,-0.26 -0.49,0.16 -0.9,0.32 -1.42,0 -0.27,-0.17 -0.72,-0.11 -1.08,-0.1 -0.24,0.01 -0.47,0.19 -0.7,0.19 -0.19,0 -0.39,-0.18 -0.59,-0.19 -0.4,-0.01 -1.3,0.67 -1.33,-0.22 -0.02,-0.46 0.48,-0.63 0.62,-1.05 0.12,-0.35 0.11,-0.77 -0.1,-1.09 -0.62,-0.96 -1.4,-0.86 -2.37,-0.64 -0.59,0.13 -1.1,0.11 -1.58,0.53 -0.2,0.18 -0.43,0.33 -0.67,0.45 -0.13,-1.46 -0.27,-2.92 -0.39,-4.38 -0.06,-0.76 0.32,-1.2 0.13,-1.67 0.5,0.16 1.01,0.31 1.56,0.26 3.24,-0.27 -1.35,-4.02 -2.08,-4.74 -1.98,-1.95 -3.92,-3.94 -5.98,-5.8 -1.39,-1.26 -2.86,-2.46 -4.27,-3.72 -0.74,-0.66 -1.78,-1.18 -2.3,-2.02 -0.61,0.08 -1.12,0.51 -1.59,0.87 -2.16,1.68 -3.77,3.92 -5.59,5.93 -0.85,0.94 -1.77,1.89 -2.76,2.7 -0.36,0.3 -0.69,0.44 -1.02,0.53 -0.2,-0.1 -0.4,-0.21 -0.58,-0.33 -0.45,-0.32 -0.86,-0.74 -1.29,-1.11 -0.83,-0.72 -1.53,-1.12 -2.49,-1.61 -1.33,-0.67 -1.37,-2.09 -2.53,-2.91 -0.88,0.7 -1.72,1.18 -2.5,2 -1.06,1.12 -2.3,2.1 -3.41,3.18 -1.17,1.13 -2.43,2.3 -3.7,3.32 -0.87,0.7 -1.9,1.32 -2.65,2.15 -0.67,0.75 -0.35,1.43 0.61,1.44 0.61,0 1.22,0.03 1.82,0.09 -0.02,0.06 -0.05,0.11 -0.07,0.18 -0.4,1.46 -0.19,3.32 -0.3,4.84 -0.05,0.72 -0.13,1.42 -0.17,2.14 -0.02,0.38 -0.01,0.85 -0.1,1.27 -0.38,0.02 -0.64,0.07 -1.04,0.21 -0.53,0.19 -0.79,0.04 -1.24,-0.13 -0.38,-0.14 -0.78,-0.06 -1.17,0 -0.48,0.08 -0.99,0.15 -1.36,0.55 -0.14,0.15 -0.42,0.17 -0.53,0.33 -0.35,0.49 -0.74,0.38 -1.19,0.18 -0.01,0 -0.02,0 -0.04,-0.01 -0.05,-0.32 -0.1,-0.64 -0.1,-0.92 -0.02,-0.93 -0.09,-1.85 -0.09,-2.79 0,-1.76 0,-3.52 0.32,-5.75 0.18,-0.07 0.36,-0.14 0.53,-0.22 -0.08,-0.85 -1,-1.19 -1.49,-1.8 -0.9,-1.12 -1.38,-2.14 -2.63,-3.01 -1.79,-1.23 -3.09,-3.03 -5.68,-4.56 -1.5,0.82 -2.67,2.25 -3.83,3.49 -1.43,1.53 -2.89,2.61 -4.54,3.83 -0.59,0.44 -3.24,2.28 -2.62,3.06 0.22,0.28 0.95,0.2 1.26,0.2 0.31,0 0.62,0.01 0.94,0.02 -0.03,0.05 -0.07,0.13 -0.14,0.31 -0.24,0.58 0.11,2.26 0.15,2.93 0.07,1.32 0.07,2.62 0.2,3.95 0.03,0.28 0,0.67 0,1.09 -0.15,0 -0.31,0 -0.46,0 -0.5,0.04 -0.77,0.16 -1.14,-0.27 -0.22,-0.26 -0.33,-0.6 -0.48,-0.9 -0.16,-0.31 -0.29,-0.63 -0.61,-0.79 -0.17,-0.09 -0.33,-0.05 -0.48,-0.17 -0.1,-0.08 -0.16,-0.27 -0.24,-0.37 -0.72,-0.85 -1.56,-0.49 -2.51,-0.58 -0.26,-0.02 -0.71,-0.38 -0.94,-0.19 -0.25,0.21 0.01,0.64 0.11,0.85 0.3,0.62 0.36,1.37 -0.12,1.91 -0.11,0.12 -0.3,0.2 -0.39,0.32 -0.08,0.11 -0.04,0.27 -0.13,0.38 -0.16,0.2 -0.28,0.25 -0.55,0.23 -0.65,-0.04 -1.3,-0.14 -1.95,-0.21 -0.48,-0.59 -1.38,-0.52 -2.05,-0.72 -0.86,-0.26 -1.68,-0.58 -2.59,-0.35 -0.52,0.13 -0.77,0.41 -0.85,0.92 -0.02,0.15 0.03,0.51 -0.04,0.64 -0.35,0.59 -1.64,0.4 -2.17,0.4 -0.92,0 -1.84,0 -2.76,0 -1.8,0 -3.61,0 -5.41,0 -1.72,0 -3.43,0 -5.15,0 -0.66,0 -1.66,0.19 -2.27,-0.05 -0.46,-0.18 -0.6,-0.78 -1.07,-0.95 -0.24,-0.09 -0.52,0.02 -0.74,-0.04 -0.32,-0.09 -0.5,-0.46 -0.73,-0.66 -0.73,-0.64 -1.79,-0.54 -2.69,-0.54 -0.42,0 -0.81,-0.12 -1.2,-0.28 -0.66,-0.28 -1.26,-0.42 -1.98,-0.42 -0.7,0 -1.43,0.24 -1.98,0.7 -0.4,0.33 -0.53,0.76 -0.97,1.01 -0.4,0.22 -0.67,0.42 -0.82,0.87 -0.1,0.31 -0.22,0.37 -0.52,0.37 -1.6,0 -3.2,0 -4.8,0 -0.53,0 -0.96,0.1 -1.14,-0.47 -0.12,-0.39 -0.02,-0.82 -0.46,-1.04 -0.41,-0.21 -0.52,-0.13 -0.79,-0.56 -0.24,-0.38 -0.56,-0.79 -0.96,-0.99 -0.93,-0.46 -1.95,-0.05 -2.89,-0.05 -0.7,0 -1.35,-0.13 -2.02,0.12 -0.42,0.15 -0.78,0.48 -1.19,0.62 -0.61,0.21 -0.85,0.07 -1.28,0.7 -0.4,0.58 -0.02,1.66 -0.89,1.66 -0.94,0 -1.88,0.03 -2.82,0 -0.79,-0.02 -1.53,-0.34 -2.32,-0.34 -0.83,0 -1.66,0.29 -2.48,0.39 -0.42,0.05 -1.67,0.23 -1.92,-0.26 -0.26,-0.5 0.39,-1.21 0.11,-1.74 -0.11,-0.2 -0.32,-0.2 -0.41,-0.43 -0.05,-0.13 0.01,-0.34 0,-0.47 -0.03,-0.37 -0.13,-0.69 -0.37,-0.99 -0.26,-0.31 -0.6,-0.6 -0.99,-0.73 -0.41,-0.14 -0.88,0 -1.21,-0.2 -0.15,-0.09 -0.2,-0.28 -0.36,-0.37 -0.21,-0.12 -0.56,-0.12 -0.8,-0.14 -0.77,-0.04 -1.54,-0.03 -2.22,0.35 -0.22,0.12 -0.4,0.32 -0.62,0.44 -0.15,0.08 -0.38,0.08 -0.54,0.17 -0.99,0.54 -1.16,1.68 -0.81,2.67 0.21,0.6 0.5,1.2 -0.34,1.36 -0.7,0.13 -1.4,0 -2.11,0.01 -0.55,0 -1.04,0.26 -1.56,0.26 h -2.63 c -0.56,0 -1.53,0.17 -1.9,-0.38 -0.48,-0.71 -0.41,-1.67 -1.53,-1.76 -0.94,-0.08 -1.8,-0.45 -2.72,-0.57 -0.08,-0.01 -0.19,-0.06 -0.24,-0.03 -0.36,0.29 -0.65,0.13 -0.85,-0.16 -0.34,-0.51 -0.93,-0.53 -1.29,-0.34 -0.38,0.19 -0.72,0.19 -1.06,0.16 -0.64,-0.04 -1.21,0.14 -1.79,0.34 -0.07,0.02 -0.13,0.12 -0.18,0.11 -0.83,-0.23 -1.24,0.36 -1.69,0.83 -0.32,0.34 -0.77,0.38 -1.16,0.48 -0.45,0.12 -0.84,0.2 -1.02,0.66 -0.2,0.51 -0.13,1.09 -0.03,1.64 h 180.02 z"
         id="path307" />
      <circle
         id="Sun"
         class="cls-58"
         cx="98.790001"
         cy="58.790001"
         r="23.860001" />
    </g>
  </g>
  <path
     class="cls-64"
     d="m 192.43135,120.93 c -9.33,29.56 -32.52,53.02 -61.92,62.72 h 61.92 z"
     id="path313"
     style="isolation:isolate" />
  <path
     class="cls-64"
     d="m 191.90484,63.599999 c -9.33,-29.56 -32.52,-53.02 -61.92,-62.72 h 61.92 c 0,0 0,62.72 0,62.72 z"
     id="path315"
     style="isolation:isolate" />
  <path
     class="cls-59"
     d="m 100.33135,183.88 c -50.7,0 -91.9400003,-41.25 -91.9400003,-91.94 C 8.3913497,41.25 49.64135,0 100.33135,0 c 50.69,0 91.94,41.24 91.94,91.94 0,50.7 -41.25,91.94 -91.94,91.94 z m 0,-177.98 c -47.44,0 -86.04,38.6 -86.04,86.04 0,47.44 38.6,86.04 86.04,86.04 47.44,0 86.04,-38.6 86.04,-86.04 0,-47.44 -38.59,-86.04 -86.04,-86.04 z"
     id="path319"
     style="isolation:isolate" />
  <g
     id="Tree"
     style="isolation:isolate"
     transform="translate(-7.6286503,-11.97)">
    <path
       d="m 8.98,68.35 c 0.15,-0.27 0.31,-0.51 0.46,-0.71 1.13,-1.49 3.75,-1.15 4.78,-2.61 0.38,-0.54 0.17,-0.98 0.64,-1.56 0.47,-0.58 1.21,-0.63 1.83,-0.85 1.44,-0.51 2.38,-1.58 3.84,-2.14 3.39,-1.31 7.69,-0.84 11.28,-1.31 0.16,-0.02 0.44,-0.08 0.45,-0.15 0.27,-2.06 2.09,-1.51 3.27,-1.84 1.98,-0.56 4.05,-0.86 6.09,-1.22 0.59,-0.1 1.31,-0.22 1.79,0.02 1.04,0.52 2.03,0.46 3.1,0.24 1.74,-0.36 3.49,-0.66 5.23,-0.99 0.27,-0.05 0.64,-0.09 0.77,-0.27 1.35,-1.88 2.9,-0.71 4.45,-0.4 1.28,0.26 2.6,0.3 3.91,0.38 0.22,0.01 0.45,-0.24 0.68,-0.36 -0.17,-0.23 -0.29,-0.58 -0.52,-0.68 -0.96,-0.44 -0.57,-0.75 0.07,-1.04 0.3,-0.14 0.65,-0.29 0.97,-0.26 1.74,0.16 3.35,-0.42 4.87,-1.05 2.25,-0.95 4.41,-0.46 6.55,0.09 1.71,0.44 3.35,0.86 5.12,0.36 2.27,-0.64 4.53,0.24 6.8,0.16 0.66,-0.02 1.5,0.3 1.99,0.75 1.2,1.11 2.64,1.55 4.13,1.43 3.44,-0.29 6.79,0.79 10.25,0.5 1.06,-0.09 2.18,0.77 3.3,1.08 2.53,0.71 5.11,0.93 7.75,0.97 2.98,0.05 6.04,0.21 8.71,1.94 0.42,0.27 0.9,0.45 1.37,0.63 2.1,0.78 4.16,1.7 6.32,2.26 1.17,0.3 1.6,1.29 2.49,1.8 0.84,0.48 1.91,0.67 2.43,1.58 0.48,0.86 0.18,1.69 -0.9,1.54 -0.25,2.01 1.23,2.81 2.83,3.46 1.6,0.65 2.48,2 3.76,3.05 0.58,0.47 2.36,1.68 1.92,2.6 -0.31,0.65 -1.72,0.53 -2.32,0.54 -1.13,0 -2.32,-0.05 -3.34,-0.6 -0.74,-0.4 -1.44,-1.3 -2.32,-1.34 -0.95,-0.04 -1.75,0.58 -2.72,0.41 -0.66,-0.12 -1.32,-0.28 -1.98,-0.42 -0.4,-0.08 -0.62,-0.32 -1.02,-0.48 -0.97,-0.39 -2.57,-0.32 -3.62,-0.32 -1.18,0 -2.44,0.22 -3.64,0.33 -0.91,0.08 -1.82,0.2 -2.71,0.31 -1.78,0.21 -3.29,1.21 -4.94,1.71 -1.04,0.31 -2.25,-0.05 -3.03,0.91 -0.38,0.47 -0.34,0.97 -0.99,1.2 -0.54,0.19 -1.45,-0.09 -1.96,-0.16 -1.48,-0.2 -2.93,-0.23 -4.36,-0.72 -1.73,-0.59 -3.41,-1.18 -5.28,-0.86 -1.17,0.2 -2.12,0.96 -3.27,1.21 -1.26,0.28 -2.64,0.22 -3.93,0.28 -2.2,0.12 -4.91,0.96 -6.67,2.18 -0.37,0.25 -0.81,0.65 -1.17,0.61 -1.94,-0.23 -2.9,1.21 -4.1,2.25 -0.43,0.37 -0.81,0.8 -1.26,1.12 -6.4,4.51 -7.29,12.32 -6.17,19.44 0.53,3.36 1.47,5.58 0.67,9.1 -0.36,1.57 -0.6,3.96 -1.58,5.28 -0.77,1.04 -2.63,0.7 -3.76,0.52 -0.37,-0.06 -1.24,-0.14 -1.46,-0.53 -0.32,-0.56 0.57,-2.01 0.71,-2.67 1,-4.92 1.42,-14.27 -0.47,-18.99 -0.4,-0.99 -1.1,-2 -1.93,-2.65 -1.82,-1.42 -3.5,-2.91 -5,-4.7 -1.07,-1.27 -2.33,-2.38 -3.7,-3.32 -1.46,-0.99 -3.08,-1.64 -4.56,-2.58 -0.39,-0.25 -1.32,-0.57 -1.59,-0.91 -0.27,-0.34 -0.13,-0.76 0.38,-0.7 0.47,0.05 0.97,0.58 1.42,0.76 0.63,0.26 1.31,0.41 1.92,0.72 1.17,0.61 2.27,1.34 3.49,1.84 0.34,0.14 0.62,0.21 0.85,0.41 0.19,0.17 0.31,0.45 0.52,0.63 0.42,0.35 0.92,0.61 1.39,0.88 0.51,0.3 1.14,0.65 1.59,1.04 0.12,0.11 0.95,1.28 1.09,1.18 0.83,-0.56 -1.42,-2.68 -1.84,-3.1 -0.7,-0.7 -1.53,-1.13 -2.29,-1.73 -0.31,-0.24 -0.47,-0.62 -0.76,-0.87 -0.21,-0.18 -0.51,-0.28 -0.73,-0.47 -0.63,-0.52 -1.25,-1.05 -1.9,-1.55 -1.29,-0.99 -2.71,-1.85 -4.32,-2.17 -1.68,-0.33 -3.04,0.58 -4.66,0.65 -1.33,0.06 -3.02,-0.01 -4.22,-0.69 C 39.5,78.32 39.2,77.77 38.37,77.58 37.7,77.42 37.08,77.53 36.8,76.8 c -0.21,-0.54 -0.06,-1.13 0.45,-1.33 0.51,-0.2 1.15,0.1 1.67,-0.02 0.32,-0.08 0.56,-0.26 0.85,-0.4 0.55,-0.26 1.25,-0.26 1.76,-0.62 0.95,-0.66 0.02,-0.83 -0.71,-1.13 -2.01,-0.82 -4.07,-1.51 -6.25,-1.63 -3.46,-0.19 -6.88,-1 -10.33,-1.11 -1.75,-0.05 -3.09,1.22 -4.78,1.22 -2.2,0 -4.1,-0.02 -6.31,0.76 C 11.85,73 7.96,74.55 7.64,72.06 7.51,71.08 8.53,69.16 9,68.31 Z m 115.71,3.39 c 0.48,-0.35 0.84,-1.36 0.17,-1.65 -0.67,-0.29 -2.27,0.38 -3.03,0.42 -0.93,0.05 -1.83,-0.01 -2.63,-0.45 -1.27,-0.69 -2.97,-0.47 -4.26,0.09 -0.76,0.33 -1.51,0.64 -2.32,0.85 -4.26,1.1 -8.56,-2.44 -12.63,0.39 -0.19,0.13 -0.53,0.03 -0.8,0.03 -0.76,-0.01 -1.55,-0.15 -2.29,-0.02 -3.28,0.57 -6.23,2.04 -9.23,3.39 -0.35,0.16 -0.59,0.58 -0.89,0.87 0.39,0.2 0.77,0.43 1.18,0.58 0.19,0.07 0.44,0.02 0.66,-0.02 2.42,-0.45 4.91,-0.66 7.23,-1.42 2.53,-0.83 4.78,-0.51 7.18,0.34 1.21,0.43 2.47,0.82 3.76,0.93 0.56,0.05 1.31,0.09 1.81,-0.23 0.39,-0.25 0.29,-0.48 0.49,-0.83 0.23,-0.39 0.7,-0.65 1.14,-0.77 1.03,-0.27 1.74,0.51 2.73,0.11 0.72,-0.29 1.32,-0.87 2.05,-1.13 0.54,-0.19 1.05,-0.53 1.59,-0.71 0.59,-0.19 1.3,-0.12 1.92,-0.15 l 4.35,-0.18 c 0.63,-0.03 1.3,-0.07 1.82,-0.44 z m -66.42,2.85 c -0.87,0.15 -1.44,0.19 -1.97,0.35 -1.11,0.35 -1.93,2.09 -1.19,2.52 1.12,0.66 1.66,1.47 1.73,2.75 0.02,0.37 0.46,0.74 0.77,1.05 0.75,0.75 1.55,1.46 2.31,2.2 0.88,0.85 1.72,1.75 2.64,2.55 0.34,0.3 0.85,0.39 1.29,0.58 -0.03,-0.44 -0.01,-0.89 -0.1,-1.31 -0.12,-0.59 -0.47,-1.18 -0.45,-1.76 0.07,-1.78 0.33,-3.55 0.39,-5.33 0.02,-0.65 -0.11,-1.72 -0.48,-1.89 -1.67,-0.74 -3.45,-1.22 -4.94,-1.71 z m 13.32,-5.43 c 0.95,0.17 1.9,0.35 2.85,0.44 1.22,0.11 2.49,-1.14 2.53,-2.31 0.03,-0.8 0.34,-1.63 -0.28,-2.35 -0.43,-0.5 -1.2,-0.65 -1.71,-1.06 -0.6,-0.48 -1.16,-0.61 -1.93,-0.56 -1.21,0.09 -2.4,0.3 -3.58,0.61 -1.18,0.31 -2.12,0.83 -3.21,1.21 -0.48,0.16 -1.2,0.05 -1.61,0.3 -0.91,0.55 -0.59,1.92 -0.14,2.68 0.41,0.7 0.61,1.32 1.44,1.4 0.75,0.07 1.01,0.27 1.78,0.05 0.53,-0.15 1.03,-0.43 1.56,-0.59 0.29,-0.09 0.62,-0.09 0.92,-0.05 0.46,0.07 0.91,0.15 1.37,0.24 z M 55.6,69.14 c 1.11,0.23 0.69,-1.57 0.45,-2 -0.42,-0.72 -1.25,-0.97 -1.71,-1.57 -0.62,-0.83 -0.84,-0.97 -1.95,-1.15 -1.04,-0.17 -2.12,-0.38 -3.17,-0.34 -0.59,0.02 -0.89,-0.04 -0.9,0.71 -0.01,0.79 0.65,1.44 0.7,2.27 0.05,0.83 0.08,1.25 0.99,1.67 0.72,0.33 1.58,0.39 2.35,0.45 0.58,0.05 0.96,-0.18 1.47,-0.24 0.53,-0.06 1.23,0.08 1.76,0.2 z m 54.81,0.87 c 0.51,-0.02 1.02,-0.07 1.58,-0.16 0.65,-0.11 1.27,0.03 1.91,-0.21 0.64,-0.24 1.97,-0.79 2.37,-1.24 -0.89,-0.19 -1.84,-0.14 -2.7,-0.33 -0.98,-0.22 -1.56,-1.01 -2.67,-0.99 -0.97,0.01 -1.69,0.53 -2.52,0.93 -0.08,0.04 -2.96,1.43 -1.57,1.67 1.31,0.23 2.43,0.37 3.61,0.33 z m -26.9,5.02 c 0.59,-0.25 1.22,-0.46 1.8,-0.77 2.01,-1.05 4.01,-2.13 6,-3.21 0.25,-0.14 0.44,-0.4 0.66,-0.6 -0.27,-0.25 -0.54,-0.72 -0.8,-0.72 -0.76,0 -1.64,0 -2.27,0.35 -2.01,1.17 -3.94,2.5 -5.88,3.79 -0.2,0.13 -0.29,0.42 -0.43,0.63 0.27,0.15 0.55,0.31 0.93,0.52 z m -18.46,6.44 c 0,0.1 0,0.19 0,0.29 -0.01,0.68 -0.22,1.37 -0.16,2.06 0.05,0.57 0.49,1.15 0.71,1.66 0.26,0.6 0.53,1.3 0.67,1.95 0.04,0.18 0.07,0.8 0.3,0.87 0.6,0.17 0.45,-1.93 0.42,-2.24 -0.16,-2.08 -0.6,-4.05 -0.45,-6.13 0.05,-0.69 -0.09,-1.37 0.08,-2.04 -0.88,0.42 -1.45,0.65 -1.52,1.74 -0.04,0.62 -0.04,1.24 -0.04,1.86 z m 17.31,-9.26 c 1.07,-0.77 2.11,-1.6 3.08,-2.49 0.18,-0.17 0.05,-1.01 -0.19,-1.21 -0.74,-0.59 -1.35,-0.53 -2.24,-0.71 -0.33,-0.07 -0.76,-0.49 -1.11,-0.38 -0.43,0.13 -0.41,0.76 -0.55,1.09 -0.24,0.54 -0.73,0.82 -1.09,1.26 -0.3,0.38 -0.62,0.88 -0.87,1.31 -0.99,1.68 1.86,1.93 2.81,1.26 0.06,-0.04 0.11,-0.08 0.17,-0.12 z m -1.61,4.88 c -0.13,-0.19 -0.26,-0.54 -0.44,-0.57 -0.26,-0.05 -0.61,0.06 -0.85,0.22 -1.99,1.37 -2.99,3.59 -4.55,5.34 -0.19,0.21 -0.24,0.54 -0.36,0.82 0.3,-0.09 0.7,-0.1 0.9,-0.3 1.68,-1.64 3.33,-3.31 4.99,-4.98 0.11,-0.11 0.17,-0.29 0.3,-0.53 z M 62.13,69.17 c 0.07,-0.1 0.14,-0.24 0.2,-0.42 0.3,-0.92 -0.39,-1.43 -0.69,-2.25 -0.25,-0.69 -0.28,-1.47 -0.46,-2.18 -0.45,0.23 -0.91,0.45 -1.36,0.66 -0.34,0.16 -0.84,0.09 -1.13,0.34 -0.54,0.47 -0.28,1.39 -0.13,1.93 0.29,1.03 0.72,1.64 1.84,1.85 0.72,0.13 1.33,0.6 1.72,0.06 z m 10.77,6.11 c 0.24,-0.19 0.5,-0.37 0.83,-0.46 0.95,-0.27 1.97,-0.46 2.84,-0.95 1.25,-0.72 -0.56,-1.59 -1.27,-1.6 -1.07,-0.02 -2.18,0.55 -2.95,1.27 -0.56,0.53 -0.38,1.65 -0.36,2.37 0.36,-0.16 0.62,-0.4 0.9,-0.62 z m -2.85,6.35 c 0,0 0.11,-0.35 -0.03,-0.51 -0.45,-0.51 -0.99,-0.93 -1.49,-1.39 -0.07,0.49 -0.15,0.99 -0.2,1.48 -0.03,0.33 -0.05,0.68 0.03,1 0.15,0.58 0.37,1.15 0.56,1.72 0.37,-0.55 0.74,-1.1 1.1,-1.67 0.05,-0.08 0.01,-0.22 0.03,-0.63 z m 31.43,-12.27 c 0.41,-0.03 0.81,-0.06 1.25,-0.31 0.43,-0.25 0.72,-0.48 1.24,-0.58 0.25,-0.05 0.7,0.01 0.88,-0.19 0.16,-0.17 0.1,-0.6 -0.01,-0.77 -0.34,-0.51 -1.23,-0.25 -1.75,-0.18 -1.08,0.16 -2.66,0.09 -3.41,1.04 -0.23,0.29 -0.77,0.89 -0.88,1.19 -0.12,0.32 1.84,-0.1 1.94,-0.12 0.26,-0.05 0.51,-0.07 0.75,-0.08 z m -49.22,8.21 c 0,0 0.07,0.01 0.1,0.01 0.55,-0.01 1.09,-1.26 1.15,-1.74 0.06,-0.58 0.21,-1 0.33,-1.53 -0.94,-0.44 -2.91,-0.4 -3.76,0.19 -0.29,0.2 -0.48,0.47 -0.73,0.7 -0.18,0.16 -0.72,0.33 -0.83,0.48 -0.39,0.52 1.17,0.82 1.42,0.88 0.45,0.12 0.92,0.23 1.35,0.42 0.25,0.11 0.68,0.51 0.97,0.59 z M 37.98,66.71 c 0.54,-0.06 1.44,-0.08 1.71,-0.52 -0.41,-0.67 -1.51,-0.69 -2.2,-0.87 -0.62,-0.16 -1.24,-0.55 -1.9,-0.52 -0.66,0.03 -1.3,0.37 -1.96,0.49 -0.33,0.06 -1.41,-0.18 -1.62,0.01 -0.62,0.56 2.07,1.27 2.54,1.31 0.92,0.09 1.86,0.15 2.78,0.15 0.16,0 0.33,-0.01 0.49,-0.04 0.05,0 0.1,-0.02 0.16,-0.02 z"
       id="path321" />
  </g>
</svg>
