<?xml version="1.0" encoding="UTF-8" standalone="no"?>
<svg
   version="1.1"
   viewBox="0 0 32.02 32.02"
   id="svg121"
   sodipodi:docname="orc_favicon.svg"
   width="32.02"
   height="32.02"
   inkscape:version="1.3 (0e150ed6c4, 2023-07-21)"
   xmlns:inkscape="http://www.inkscape.org/namespaces/inkscape"
   xmlns:sodipodi="http://sodipodi.sourceforge.net/DTD/sodipodi-0.dtd"
   xmlns="http://www.w3.org/2000/svg"
   xmlns:svg="http://www.w3.org/2000/svg">
  <sodipodi:namedview
     id="namedview121"
     pagecolor="#ffffff"
     bordercolor="#000000"
     borderopacity="0.25"
     inkscape:showpageshadow="2"
     inkscape:pageopacity="0.0"
     inkscape:pagecheckerboard="0"
     inkscape:deskcolor="#d1d1d1"
     inkscape:zoom="1.0366162"
     inkscape:cx="-95.020706"
     inkscape:cy="-333.29598"
     inkscape:window-width="1920"
     inkscape:window-height="1017"
     inkscape:window-x="-8"
     inkscape:window-y="-8"
     inkscape:window-maximized="1"
     inkscape:current-layer="Layer_1" />
  <defs
     id="defs8">
    <style
       id="style1">&#10;      .cls-1, .cls-2, .cls-3, .cls-4, .cls-5, .cls-6 {&#10;        stroke-miterlimit: 10;&#10;      }&#10;&#10;      .cls-1, .cls-2, .cls-4 {&#10;        fill: none;&#10;      }&#10;&#10;      .cls-1, .cls-5 {&#10;        stroke: #231f20;&#10;      }&#10;&#10;      .cls-7 {&#10;        fill: #58595b;&#10;      }&#10;&#10;      .cls-8, .cls-9 {&#10;        fill: #231f20;&#10;      }&#10;&#10;      .cls-2, .cls-3, .cls-4, .cls-6 {&#10;        stroke: #fff;&#10;      }&#10;&#10;      .cls-10 {&#10;        fill: #4e7134;&#10;      }&#10;&#10;      .cls-11 {&#10;        fill: #6d6e71;&#10;      }&#10;&#10;      .cls-12 {&#10;        fill: #414042;&#10;      }&#10;&#10;      .cls-13 {&#10;        fill: #71a040;&#10;      }&#10;&#10;      .cls-14 {&#10;        fill: #9fc6cc;&#10;      }&#10;&#10;      .cls-3 {&#10;        fill: #808285;&#10;      }&#10;&#10;      .cls-15 {&#10;        clip-path: url(#clippath-1);&#10;      }&#10;&#10;      .cls-16 {&#10;        clip-path: url(#clippath-3);&#10;      }&#10;&#10;      .cls-17 {&#10;        clip-path: url(#clippath-4);&#10;      }&#10;&#10;      .cls-18 {&#10;        clip-path: url(#clippath-2);&#10;      }&#10;&#10;      .cls-19 {&#10;        clip-path: url(#clippath-7);&#10;      }&#10;&#10;      .cls-20 {&#10;        clip-path: url(#clippath-6);&#10;      }&#10;&#10;      .cls-21 {&#10;        clip-path: url(#clippath-5);&#10;      }&#10;&#10;      .cls-4 {&#10;        stroke-width: .75px;&#10;      }&#10;&#10;      .cls-22, .cls-5 {&#10;        fill: #fff;&#10;      }&#10;&#10;      .cls-9, .cls-23 {&#10;        font-family: Arial-Black, 'Arial Black';&#10;        font-size: 21.21px;&#10;        font-weight: 800;&#10;      }&#10;&#10;      .cls-23, .cls-6 {&#10;        fill: #214473;&#10;      }&#10;&#10;      .cls-24 {&#10;        fill: #9e9d9e;&#10;        font-family: Helvetica-Light, Helvetica;&#10;        font-size: 14px;&#10;        font-weight: 300;&#10;        letter-spacing: .03em;&#10;      }&#10;&#10;      .cls-25 {&#10;        fill: #9ec5cb;&#10;      }&#10;&#10;      .cls-26 {&#10;        fill: #204474;&#10;      }&#10;&#10;      .cls-27 {&#10;        clip-path: url(#clippath);&#10;      }&#10;    </style>
    <clipPath
       id="clippath">
      <polygon
         class="cls-2"
         points="115.47,126.94 150.01,161.23 196.97,148.46 209.4,101.41 174.86,67.12 127.89,79.89 "
         id="polygon1" />
    </clipPath>
    <clipPath
       id="clippath-1">
      <polygon
         class="cls-2"
         points="115.52,368.05 150.06,402.34 197.03,389.58 209.45,342.52 174.91,308.23 127.95,321 "
         id="polygon2" />
    </clipPath>
    <clipPath
       id="clippath-2">
      <polygon
         class="cls-1"
         points="115.58,601.55 150.12,635.84 197.08,623.07 209.51,576.02 174.97,541.73 128,554.5 "
         id="polygon3" />
    </clipPath>
    <clipPath
       id="clippath-3">
      <polygon
         class="cls-4"
         points="146.81,747.63 153.56,754.33 162.75,751.83 165.17,742.63 158.42,735.93 149.24,738.43 "
         id="polygon4" />
    </clipPath>
    <clipPath
       id="clippath-4">
      <polygon
         class="cls-2"
         points="372.02,126.42 409.99,164.12 461.63,150.08 475.29,98.34 437.31,60.65 385.68,74.68 "
         id="polygon5" />
    </clipPath>
    <clipPath
       id="clippath-5">
      <polygon
         class="cls-2"
         points="372.07,367.53 410.05,405.23 461.68,391.19 475.34,339.46 437.37,301.76 385.73,315.79 "
         id="polygon6" />
    </clipPath>
    <clipPath
       id="clippath-6">
      <polygon
         class="cls-1"
         points="372.12,601.03 410.1,638.73 461.73,624.69 475.39,572.95 437.42,535.26 385.78,549.29 "
         id="polygon7" />
    </clipPath>
    <clipPath
       id="clippath-7">
      <polygon
         class="cls-4"
         points="408.02,747.63 414.78,754.33 423.96,751.83 426.39,742.63 419.63,735.93 410.45,738.43 "
         id="polygon8" />
    </clipPath>
  </defs>
  <!-- Generator: Adobe Illustrator 28.6.0, SVG Export Plug-In . SVG Version: 1.2.0 Build 709)  -->
  <g
     id="g121"
     transform="translate(-401.18,-729.12)">
    <g
       id="Layer_1">
      <g
         id="G2_Logo-8"
         data-name="G2_Logo">
        <g
           id="g114">
          <circle
             class="cls-22"
             cx="417.19"
             cy="745.13"
             r="16.01"
             id="circle97" />
          <g
             id="g109">
            <g
               id="g98">
              <path
                 class="cls-26"
                 d="m 415.64,730.15 c 0.53,-0.06 1.05,-0.08 1.58,-0.08 1.58,0 3.15,0.25 4.67,0.75 2.53,0.83 4.79,2.3 6.55,4.27 l -1.64,6.17 z"
                 id="path97" />
              <path
                 class="cls-22"
                 d="m 417.22,730.44 c 1.54,0 3.08,0.24 4.55,0.73 2.4,0.78 4.55,2.17 6.25,4.02 l -1.42,5.34 -10.12,-10.07 c 0.25,-0.01 0.49,-0.02 0.74,-0.02 m 0,-0.75 c -0.8,0 -1.6,0.06 -2.39,0.19 l 12.16,12.1 1.85,-6.99 c -1.77,-2.04 -4.09,-3.64 -6.84,-4.53 -1.59,-0.52 -3.2,-0.76 -4.79,-0.76 v 0 z"
                 id="path98" />
            </g>
            <g
               id="g100">
              <path
                 class="cls-26"
                 d="m 403.45,739 c 1.96,-4.43 5.9,-7.61 10.68,-8.61 l 4.52,4.5 z"
                 id="path99" />
              <path
                 class="cls-22"
                 d="m 414,730.79 3.92,3.9 -13.79,3.73 c 1.98,-3.88 5.56,-6.66 9.87,-7.63 m 0.24,-0.81 c -5.06,0.99 -9.47,4.49 -11.44,9.58 l 16.56,-4.48 -5.13,-5.1 v 0 z"
                 id="path100" />
            </g>
            <g
               id="g102">
              <path
                 class="cls-26"
                 d="m 429.39,736.28 c 2.84,3.91 3.64,8.91 2.13,13.53 v 0.02 c 0,0 -6.17,1.67 -6.17,1.67 z"
                 id="path101" />
              <path
                 class="cls-22"
                 d="m 429.55,737.17 c 2.36,3.66 2.99,8.16 1.67,12.35 l -5.34,1.44 3.66,-13.8 m -0.31,-1.71 -4.4,16.58 6.97,-1.89 c 0.02,-0.07 0.05,-0.14 0.08,-0.22 1.68,-5.15 0.51,-10.55 -2.65,-14.48 v 0 z"
                 id="path102" />
            </g>
            <g
               id="g104">
              <path
                 class="cls-26"
                 d="m 405.02,753.98 c -2.84,-3.91 -3.64,-8.91 -2.13,-13.53 v -0.02 c 0,0 6.17,-1.67 6.17,-1.67 z"
                 id="path103" />
              <path
                 class="cls-22"
                 d="m 408.52,739.29 -3.66,13.8 c -2.36,-3.66 -2.99,-8.16 -1.67,-12.35 l 5.34,-1.44 m 1.05,-1.07 -6.97,1.89 c -0.02,0.07 -0.05,0.14 -0.08,0.22 -1.68,5.15 -0.51,10.55 2.65,14.48 l 4.4,-16.58 v 0 z"
                 id="path104" />
            </g>
            <g
               id="g106">
              <path
                 class="cls-26"
                 d="m 415.77,755.37 15.2,-4.11 c -1.96,4.43 -5.9,7.61 -10.68,8.61 z"
                 id="path105" />
              <path
                 class="cls-22"
                 d="m 430.28,751.84 c -1.98,3.88 -5.56,6.66 -9.87,7.63 l -3.92,-3.9 13.79,-3.73 m 1.32,-1.14 -16.56,4.48 5.13,5.1 c 5.06,-0.99 9.47,-4.49 11.44,-9.58 v 0 z"
                 id="path106" />
            </g>
            <g
               id="g108">
              <path
                 class="cls-26"
                 d="m 417.19,760.19 c -1.58,0 -3.15,-0.25 -4.67,-0.75 -2.53,-0.83 -4.79,-2.3 -6.55,-4.28 l 1.64,-6.17 11.16,11.11 c -0.53,0.06 -1.05,0.08 -1.58,0.08 v 0 z"
                 id="path107" />
              <path
                 class="cls-22"
                 d="m 407.81,749.73 10.12,10.07 c -0.25,0.01 -0.49,0.02 -0.74,0.02 -1.54,0 -3.08,-0.24 -4.55,-0.73 -2.4,-0.78 -4.55,-2.17 -6.25,-4.02 l 1.42,-5.34 m -0.39,-1.45 -1.85,6.99 c 1.77,2.04 4.09,3.64 6.84,4.53 1.59,0.52 3.2,0.76 4.79,0.76 0.8,0 1.6,-0.06 2.39,-0.19 l -12.16,-12.1 v 0 z"
                 id="path108" />
            </g>
          </g>
          <g
             id="g113">
            <g
               class="cls-19"
               clip-path="url(#clippath-7)"
               id="g112">
              <rect
                 class="cls-25"
                 x="405.39999"
                 y="733.09998"
                 width="22.66"
                 height="22.66"
                 id="rect109" />
              <g
                 id="g111">
                <rect
                   class="cls-22"
                   x="407.53"
                   y="742.44"
                   width="18.190001"
                   height="12.74"
                   id="rect110" />
                <path
                   class="cls-10"
                   d="m 404.88,740.65 c -0.03,-0.12 0,-0.25 0.06,-0.34 0.9,-0.06 1.99,0.12 2.84,-0.2 0.69,-0.26 1.11,-0.97 1.83,-1.16 0.34,-0.09 0.71,-0.04 1.05,0.02 1.22,0.23 2.42,0.62 3.54,1.15 0.81,0.39 1.58,0.84 2.39,1.24 0.16,0.08 0.33,0.14 0.5,0.22 1.49,-0.52 2.96,-1.07 4.4,-1.73 1.52,-0.7 3.1,-1.55 4.81,-1.62 0.78,-0.03 1.43,-0.06 1.78,0.71 0.29,0.61 0.29,1.34 0.27,2 -0.02,0.8 -0.12,1.7 -0.75,2.18 -0.12,0.09 -0.25,0.15 -0.38,0.21 0.78,-0.1 1.57,-0.17 2.36,-0.22 0,2.42 0.03,4.84 0.03,7.26 V 753 c 0,1.1 -0.9,2 -2,2 H 404.8 l 0.08,-14.33 z"
                   id="path110" />
                <path
                   class="cls-22"
                   d="m 418.12,755.88 c -15,-4.89 3.72,-4.4 3.72,-7.82 0,-1.92 -4.21,-1.83 -4.21,-3.33 0,-1.34 5.7,-1.38 5.69,-1.64 -0.01,-0.26 -11.03,-0.38 -11.03,1.55 0,0.87 2.09,0.99 2.09,2.31 0,1.32 -7.17,1.38 -9.97,1.77 v 7.39 l 13.71,-0.24 z"
                   id="path111" />
              </g>
            </g>
            <polygon
               class="cls-4"
               points="414.78,754.33 423.96,751.83 426.39,742.63 419.63,735.93 410.45,738.43 408.02,747.63 "
               id="polygon112" />
          </g>
        </g>
      </g>
    </g>
  </g>
</svg>
