<?xml version="1.0" encoding="UTF-8" standalone="no"?>
<svg
   version="1.1"
   viewBox="0 0 171.5 171.5"
   id="svg121"
   sodipodi:docname="orc_logo_bw.svg"
   width="171.5"
   height="171.5"
   inkscape:version="1.3 (0e150ed6c4, 2023-07-21)"
   xmlns:inkscape="http://www.inkscape.org/namespaces/inkscape"
   xmlns:sodipodi="http://sodipodi.sourceforge.net/DTD/sodipodi-0.dtd"
   xmlns="http://www.w3.org/2000/svg"
   xmlns:svg="http://www.w3.org/2000/svg">
  <sodipodi:namedview
     id="namedview121"
     pagecolor="#ffffff"
     bordercolor="#000000"
     borderopacity="0.25"
     inkscape:showpageshadow="2"
     inkscape:pageopacity="0.0"
     inkscape:pagecheckerboard="0"
     inkscape:deskcolor="#d1d1d1"
     inkscape:zoom="1.0366162"
     inkscape:cx="-31.352009"
     inkscape:cy="-105.63215"
     inkscape:window-width="1920"
     inkscape:window-height="1017"
     inkscape:window-x="-8"
     inkscape:window-y="-8"
     inkscape:window-maximized="1"
     inkscape:current-layer="G2_Logo-7" />
  <defs
     id="defs8">
    <style
       id="style1">&#10;      .cls-1, .cls-2, .cls-3, .cls-4, .cls-5, .cls-6 {&#10;        stroke-miterlimit: 10;&#10;      }&#10;&#10;      .cls-1, .cls-2, .cls-4 {&#10;        fill: none;&#10;      }&#10;&#10;      .cls-1, .cls-5 {&#10;        stroke: #231f20;&#10;      }&#10;&#10;      .cls-7 {&#10;        fill: #58595b;&#10;      }&#10;&#10;      .cls-8, .cls-9 {&#10;        fill: #231f20;&#10;      }&#10;&#10;      .cls-2, .cls-3, .cls-4, .cls-6 {&#10;        stroke: #fff;&#10;      }&#10;&#10;      .cls-10 {&#10;        fill: #4e7134;&#10;      }&#10;&#10;      .cls-11 {&#10;        fill: #6d6e71;&#10;      }&#10;&#10;      .cls-12 {&#10;        fill: #414042;&#10;      }&#10;&#10;      .cls-13 {&#10;        fill: #71a040;&#10;      }&#10;&#10;      .cls-14 {&#10;        fill: #9fc6cc;&#10;      }&#10;&#10;      .cls-3 {&#10;        fill: #808285;&#10;      }&#10;&#10;      .cls-15 {&#10;        clip-path: url(#clippath-1);&#10;      }&#10;&#10;      .cls-16 {&#10;        clip-path: url(#clippath-3);&#10;      }&#10;&#10;      .cls-17 {&#10;        clip-path: url(#clippath-4);&#10;      }&#10;&#10;      .cls-18 {&#10;        clip-path: url(#clippath-2);&#10;      }&#10;&#10;      .cls-19 {&#10;        clip-path: url(#clippath-7);&#10;      }&#10;&#10;      .cls-20 {&#10;        clip-path: url(#clippath-6);&#10;      }&#10;&#10;      .cls-21 {&#10;        clip-path: url(#clippath-5);&#10;      }&#10;&#10;      .cls-4 {&#10;        stroke-width: .75px;&#10;      }&#10;&#10;      .cls-22, .cls-5 {&#10;        fill: #fff;&#10;      }&#10;&#10;      .cls-9, .cls-23 {&#10;        font-family: Arial-Black, 'Arial Black';&#10;        font-size: 21.21px;&#10;        font-weight: 800;&#10;      }&#10;&#10;      .cls-23, .cls-6 {&#10;        fill: #214473;&#10;      }&#10;&#10;      .cls-24 {&#10;        fill: #9e9d9e;&#10;        font-family: Helvetica-Light, Helvetica;&#10;        font-size: 14px;&#10;        font-weight: 300;&#10;        letter-spacing: .03em;&#10;      }&#10;&#10;      .cls-25 {&#10;        fill: #9ec5cb;&#10;      }&#10;&#10;      .cls-26 {&#10;        fill: #204474;&#10;      }&#10;&#10;      .cls-27 {&#10;        clip-path: url(#clippath);&#10;      }&#10;    </style>
    <clipPath
       id="clippath">
      <polygon
         class="cls-2"
         points="150.01,161.23 196.97,148.46 209.4,101.41 174.86,67.12 127.89,79.89 115.47,126.94 "
         id="polygon1" />
    </clipPath>
    <clipPath
       id="clippath-1">
      <polygon
         class="cls-2"
         points="150.06,402.34 197.03,389.58 209.45,342.52 174.91,308.23 127.95,321 115.52,368.05 "
         id="polygon2" />
    </clipPath>
    <clipPath
       id="clippath-2">
      <polygon
         class="cls-1"
         points="150.12,635.84 197.08,623.07 209.51,576.02 174.97,541.73 128,554.5 115.58,601.55 "
         id="polygon3" />
    </clipPath>
    <clipPath
       id="clippath-3">
      <polygon
         class="cls-4"
         points="153.56,754.33 162.75,751.83 165.17,742.63 158.42,735.93 149.24,738.43 146.81,747.63 "
         id="polygon4" />
    </clipPath>
    <clipPath
       id="clippath-4">
      <polygon
         class="cls-2"
         points="409.99,164.12 461.63,150.08 475.29,98.34 437.31,60.65 385.68,74.68 372.02,126.42 "
         id="polygon5" />
    </clipPath>
    <clipPath
       id="clippath-5">
      <polygon
         class="cls-2"
         points="410.05,405.23 461.68,391.19 475.34,339.46 437.37,301.76 385.73,315.79 372.07,367.53 "
         id="polygon6" />
    </clipPath>
    <clipPath
       id="clippath-6">
      <polygon
         class="cls-1"
         points="410.1,638.73 461.73,624.69 475.39,572.95 437.42,535.26 385.78,549.29 372.12,601.03 "
         id="polygon7" />
    </clipPath>
    <clipPath
       id="clippath-7">
      <polygon
         class="cls-4"
         points="414.78,754.33 423.96,751.83 426.39,742.63 419.63,735.93 410.45,738.43 408.02,747.63 "
         id="polygon8" />
    </clipPath>
  </defs>
  <!-- Generator: Adobe Illustrator 28.6.0, SVG Export Plug-In . SVG Version: 1.2.0 Build 709)  -->
  <g
     id="g121"
     transform="translate(-337.95001,-501.23999)">
    <g
       id="Layer_1">
      <g
         id="G2_Logo-7"
         data-name="G2_Logo">
        <g
           id="g97">
          <circle
             class="cls-8"
             cx="423.70001"
             cy="586.98999"
             r="85.75"
             id="circle85" />
          <g
             id="g90">
            <path
               class="cls-5"
               d="m 476.18,570.11 9.93,-37.43 c -9.48,-10.9 -21.93,-19.47 -36.66,-24.28 -12.83,-4.19 -25.93,-5.05 -38.41,-3.1 l 65.14,64.82 z"
               id="path85" />
            <path
               class="cls-5"
               d="M 435.35,533.15 407.9,505.84 c -27.08,5.32 -50.74,24.06 -61.26,51.32 z"
               id="path86" />
            <path
               class="cls-5"
               d="m 464.59,623.95 37.36,-10.11 c 0.13,-0.39 0.28,-0.77 0.41,-1.16 9.02,-27.59 2.72,-56.5 -14.21,-77.55 z"
               id="path87" />
            <path
               class="cls-5"
               d="m 382.93,550.03 -37.36,10.11 c -0.13,0.39 -0.28,0.77 -0.41,1.16 -9.02,27.59 -2.72,56.5 14.21,77.55 z"
               id="path88" />
            <path
               class="cls-5"
               d="m 412.17,640.83 27.45,27.31 c 27.08,-5.32 50.74,-24.06 61.26,-51.32 z"
               id="path89" />
            <path
               class="cls-5"
               d="m 371.34,603.87 -9.93,37.43 c 9.48,10.9 21.93,19.47 36.66,24.28 12.83,4.19 25.93,5.05 38.41,3.1 l -65.14,-64.82 z"
               id="path90" />
          </g>
          <g
             id="g96">
            <g
               class="cls-20"
               clip-path="url(#clippath-6)"
               id="g95">
              <rect
                 class="cls-22"
                 x="357.37"
                 y="519.37"
                 width="127.42"
                 height="127.42"
                 id="rect90" />
              <path
                 class="cls-8"
                 d="m 447.83,557.26 c -13.19,6.06 -27.01,10.61 -40.8,15.15 4.94,2 10.39,2.31 15.71,2.59 16.3,0.85 32.6,1.71 48.89,2.56 3.65,0.19 7.65,0.28 10.56,-1.94 3.55,-2.72 4.08,-7.79 4.2,-12.26 0.1,-3.7 0.1,-7.81 -1.51,-11.24 -2.01,-4.3 -5.63,-4.16 -10.03,-3.98 -9.61,0.4 -18.48,5.2 -27.04,9.13 z"
                 id="path91" />
              <g
                 id="g94">
                <path
                   class="cls-22"
                   d="m 361.72,574.11 c 0.26,0.08 0.32,0.06 0.67,0.03 0.97,-0.08 1.94,-0.25 2.91,-0.34 1.95,-0.19 30.28,-0.32 32.24,-0.39 3.92,-0.15 7.85,-0.11 11.78,0 10.18,0.27 20.4,0.94 30.35,3.09 1.7,0.37 3.4,0.78 5.1,1.15 1.4,0.31 3.14,0.94 4.56,0.65 0.2,-0.04 0.53,-0.11 0.73,-0.12 7.05,-0.4 14.24,0.11 21.31,0.12 0.24,0 0.51,0 0.69,0.17 0.28,0.25 0.19,0.71 0.06,1.07 -0.56,1.62 -1.25,3.19 -2.06,4.7 -0.81,1.51 -2.31,2.91 -2.87,4.37 -1.12,2.92 -0.19,7.89 -0.19,11.05 0,7.39 0,14.79 0,22.18 v 15.75 c 0,2.66 -2.15,4.81 -4.81,4.81 h -96.7 c -6.34,0 -11.48,-5.14 -11.48,-11.48 v -19.33 c 0,-4.43 0,-8.87 0,-13.3 0,-2.22 0,-4.43 0,-6.65 0,-1.15 0.29,-1.51 0.78,-2.51 0.41,-0.84 0.7,-1.75 0.83,-2.68 0.1,-0.71 0.12,-1.43 0.24,-2.13 0.15,-0.91 0.41,-1.77 0.47,-2.7 0.06,-0.93 0.53,-1.7 1,-2.56 0.94,-1.74 1.98,-3.42 3.19,-4.98 0.08,-0.11 0.17,-0.22 0.3,-0.27 0.32,-0.12 0.48,0.18 0.74,0.26 0.06,0.02 0.12,0.04 0.16,0.05 z"
                   id="path92" />
                <path
                   class="cls-8"
                   d="m 354,599.06 c 0,0 7.41,-1.42 9.15,-1.61 3.58,-0.41 33.52,-1.02 37.07,-1.61 2.19,-0.37 4.38,-0.76 6.53,-1.33 1.42,-0.39 3.13,-0.88 4.17,-1.85 3.15,-3.81 -7.33,-4.29 -5.77,-8.02 1.59,-2.77 9.41,-2.84 12.54,-3.44 9.78,-1.3 19.7,-1.63 29.56,-1.84 4.91,-0.1 9.82,-0.15 14.73,-0.16 5.51,-0.01 11.01,0.36 16.53,0.32 0.56,0 1.16,-0.03 1.59,-0.38 -4.6,-1.59 -9.46,-2.27 -14.28,-2.94 -15.48,-1.99 -31.17,-3.48 -45.51,-10.41 -4.54,-2.2 -8.89,-4.78 -13.44,-6.95 -6.32,-3.01 -13.03,-5.19 -19.91,-6.49 -1.96,-0.37 -4.01,-0.66 -5.93,-0.14 -4.03,1.11 -6.42,5.09 -10.3,6.55 -4.76,1.78 -10.87,0.76 -15.95,1.11 -0.39,0.56 -0.53,1.28 -0.36,1.93 0,6.71 -0.43,13.28 -0.43,20.01 0,1.23 0.5,17.16 0,17.26 z"
                   id="path93" />
                <path
                   class="cls-8"
                   d="m 413.98,619.8 c 4.14,-3.12 9.35,-5.02 14.22,-6.9 4.2,-1.56 8.46,-2.98 12.72,-4.43 4.73,-1.71 9.66,-2.99 13.88,-5.89 1.55,-1.07 3.33,-2.17 3.21,-4.35 -0.1,-1.95 -1.64,-2.95 -3.26,-3.8 -5.62,-2.96 -15.93,-4.94 -17.9,-5.3 -1.97,-0.35 -3.85,-2.2 -0.68,-3.19 4.57,-1.31 9.42,-1.2 14.02,-2.25 5.58,-1.27 10.92,-2.83 16.42,-4.43 8.66,-2.5 17.72,-3.21 26.71,-3.74 0,13.59 0.18,27.21 0.18,40.82 0,4.93 0,9.85 0,14.78 0,6.21 -5.04,11.25 -11.25,11.25 h -47.77 c -4.75,-1 -9.4,-2.43 -13.83,-4.48 -8.2,-3.42 -16.32,-10.47 -6.68,-18.11 z"
                   id="path94" />
              </g>
            </g>
            <polygon
               class="cls-1"
               points="475.39,572.95 437.42,535.26 385.78,549.29 372.12,601.03 410.1,638.73 461.73,624.69 "
               id="polygon95" />
          </g>
        </g>
      </g>
    </g>
  </g>
</svg>
